{"glyphs":{"0":{"ha":772,"x_min":54,"x_max":717,"o":"m 628 482 q 587 196 631 326 q 514 96 564 135 q 386 56 465 56 q 195 171 249 57 q 143 472 142 282 q 192 771 142 642 q 383 904 240 901 q 585 772 534 900 q 621 637 611 714 q 628 482 628 562 l 628 482 m 386 979 q 216 937 283 978 q 115 823 150 896 q 68 665 81 754 q 54 482 54 576 q 69 290 54 380 q 119 130 83 200 q 386 -20 189 -16 q 652 130 585 -16 q 704 288 690 200 q 717 472 717 376 q 707 648 717 559 q 661 812 696 737 q 562 933 629 886 q 386 979 496 978 l 386 979 z "},"1":{"ha":772,"x_min":167,"x_max":509,"o":"m 419 0 l 509 0 l 509 979 l 437 979 q 406 880 427 918 q 349 825 382 843 q 269 799 315 807 q 167 786 224 790 l 167 728 l 419 728 l 419 0 z "},"2":{"ha":772,"x_min":66,"x_max":715,"o":"m 191 659 q 248 832 189 761 q 403 904 306 903 q 557 852 497 904 q 618 703 616 800 q 574 568 616 619 q 458 473 530 515 q 306 379 389 432 q 143 239 221 326 q 83 127 98 186 q 66 0 68 71 l 707 0 l 707 75 l 161 75 q 204 192 167 144 q 289 272 239 237 q 419 351 347 313 q 558 436 490 390 q 671 549 627 484 q 715 708 714 612 q 640 901 715 823 q 414 979 562 978 q 96 659 103 970 l 191 659 z "},"3":{"ha":772,"x_min":47,"x_max":713,"o":"m 307 472 q 429 471 372 479 q 528 439 486 463 q 622 277 615 395 q 557 123 623 187 q 379 56 488 57 q 204 115 269 56 q 136 283 136 172 l 47 283 q 146 47 62 115 q 396 -20 228 -20 q 631 72 549 -12 q 711 278 711 154 q 679 416 713 350 q 538 519 642 484 q 676 737 676 583 q 596 921 675 861 q 397 979 517 979 q 279 968 336 979 q 175 913 222 954 q 81 694 79 823 l 170 694 q 229 846 170 787 q 379 904 285 903 q 526 864 468 904 q 587 732 586 823 q 511 582 586 622 q 307 545 435 543 l 307 472 z "},"4":{"ha":772,"x_min":50,"x_max":722,"o":"m 497 0 l 586 0 l 586 241 l 722 241 l 722 317 l 586 317 l 586 969 l 505 969 l 50 318 l 50 241 l 497 241 l 497 0 m 497 836 l 497 836 l 497 317 l 138 317 l 497 836 z "},"5":{"ha":772,"x_min":49,"x_max":703,"o":"m 49 254 q 158 41 64 104 q 393 -20 253 -20 q 610 66 518 -18 q 703 306 700 151 q 616 543 701 458 q 393 629 530 628 q 178 565 277 632 l 178 565 l 239 895 l 650 895 l 650 969 l 164 969 l 85 463 l 158 453 q 371 554 240 555 q 549 486 485 553 q 614 306 612 418 q 551 129 612 199 q 379 56 490 57 q 218 106 282 56 q 138 254 154 155 l 49 254 z "},"6":{"ha":772,"x_min":57,"x_max":714,"o":"m 699 739 q 607 918 685 859 q 412 979 530 979 q 237 930 307 978 q 127 803 167 882 q 74 631 89 724 q 57 448 57 538 q 155 86 58 193 q 400 -20 252 -21 q 714 298 709 -14 q 403 614 709 608 q 311 602 351 614 q 243 567 272 589 q 192 518 214 546 q 146 461 167 490 l 146 461 q 163 610 151 533 q 200 753 174 686 q 281 863 227 821 q 420 904 332 903 q 607 739 578 900 l 699 739 m 400 539 q 625 301 627 536 q 576 135 625 210 q 507 78 550 98 q 401 56 464 56 q 231 136 282 58 q 179 296 178 210 q 239 468 179 399 q 400 539 297 538 l 400 539 z "},"7":{"ha":772,"x_min":82,"x_max":705,"o":"m 82 880 l 599 880 q 343 461 454 701 q 211 0 231 220 l 309 0 q 407 397 314 151 q 705 886 498 640 l 705 969 l 82 969 l 82 880 z "},"8":{"ha":772,"x_min":61,"x_max":711,"o":"m 387 479 q 555 429 489 479 q 622 275 621 379 q 557 117 621 176 q 393 56 493 56 q 216 118 281 57 q 150 269 150 178 q 220 429 151 378 q 387 479 283 479 l 387 479 m 383 904 q 582 747 582 901 q 529 600 581 644 q 393 554 476 553 q 249 597 310 554 q 184 728 186 639 q 243 860 186 815 q 383 904 300 904 l 383 904 m 232 526 q 61 269 62 453 q 161 54 64 125 q 367 -20 254 -20 q 618 58 525 -20 q 711 278 709 134 q 538 521 707 456 q 671 741 672 589 q 581 924 668 867 q 375 979 493 979 q 179 913 257 981 q 96 741 97 844 q 129 614 96 657 q 232 526 163 570 l 232 526 z "},"9":{"ha":772,"x_min":57,"x_max":717,"o":"m 74 215 q 165 39 89 97 q 358 -20 241 -20 q 715 485 703 -18 q 643 836 717 696 q 372 979 567 977 q 136 888 212 978 q 57 656 57 797 q 140 428 58 511 q 359 340 221 342 q 623 493 534 342 l 627 490 q 615 350 625 425 q 575 208 604 273 q 494 100 549 143 q 354 56 441 56 q 164 215 193 56 l 74 215 m 372 904 q 534 835 477 901 q 591 659 591 768 q 534 488 591 557 q 372 415 477 416 q 146 652 149 418 q 372 904 146 892 l 372 904 z "}," ":{"ha":386,"x_min":0,"x_max":0,"o":""}," ":{"ha":386,"x_min":0,"x_max":0,"o":""},"!":{"ha":463,"x_min":180,"x_max":282,"o":"m 200 252 l 262 252 l 282 689 l 282 1000 l 180 1000 l 180 689 l 200 252 m 282 0 l 282 122 l 180 122 l 180 0 l 282 0 z "},"\"":{"ha":386,"x_min":79,"x_max":306,"o":"m 79 686 l 151 686 l 151 1000 l 79 1000 l 79 686 m 233 686 l 306 686 l 306 1000 l 233 1000 l 233 686 z "},"#":{"ha":772,"x_min":37,"x_max":736,"o":"m 700 399 l 558 399 l 586 593 l 736 593 l 736 675 l 597 675 l 640 969 l 558 969 l 515 675 l 326 675 l 371 969 l 288 969 l 243 675 l 77 675 l 77 593 l 232 593 l 203 399 l 37 399 l 37 317 l 191 317 l 143 0 l 225 0 l 272 317 l 463 317 l 419 0 l 501 0 l 546 317 l 700 317 l 700 399 m 504 593 l 476 399 l 285 399 l 315 593 l 504 593 z "},"$":{"ha":772,"x_min":52,"x_max":720,"o":"m 354 547 l 354 547 q 283 574 317 559 q 224 606 250 586 q 183 657 199 627 q 167 730 167 686 q 222 857 167 810 q 354 904 275 904 l 354 547 m 419 447 l 419 447 q 504 427 465 439 q 571 391 542 414 q 615 338 600 371 q 631 250 631 302 q 570 107 629 161 q 419 49 510 50 l 419 447 m 419 -26 q 625 46 534 -21 q 720 235 717 114 q 700 366 720 314 q 639 448 679 416 q 419 534 558 509 l 419 904 q 549 859 497 903 q 600 734 599 814 l 690 734 q 611 917 685 854 q 419 979 536 981 l 419 1064 l 355 1064 l 355 979 q 161 912 240 982 q 78 726 79 844 q 160 543 79 599 q 354 461 237 486 l 354 49 q 201 122 260 57 q 142 282 142 186 l 52 282 q 58 214 53 249 q 355 -26 115 -16 l 355 -132 l 419 -132 l 419 -26 z "},"%":{"ha":1235,"x_min":93,"x_max":1140,"o":"m 913 460 q 753 393 818 458 q 684 231 685 328 q 753 69 685 135 q 913 0 818 1 q 1076 69 1013 1 q 1140 231 1139 135 q 1075 393 1139 328 q 913 460 1013 458 l 913 460 m 912 380 q 1018 336 975 379 q 1061 231 1060 293 q 1018 125 1060 168 q 912 79 975 81 q 808 125 852 81 q 762 228 764 167 q 807 336 762 293 q 912 380 848 379 l 912 380 m 553 739 q 486 903 551 838 q 322 969 420 968 q 161 901 227 968 q 93 739 94 836 q 161 578 94 643 q 322 510 227 511 q 486 578 420 511 q 553 739 551 643 l 553 739 m 322 589 q 218 635 260 590 q 172 739 174 676 q 218 846 174 803 q 322 890 260 889 q 429 846 386 889 q 473 739 472 802 q 429 635 472 676 q 322 589 385 590 l 322 589 m 928 979 l 855 979 l 304 -20 l 376 -20 l 928 979 z "},"&":{"ha":926,"x_min":57,"x_max":895,"o":"m 346 521 l 631 182 q 519 86 582 122 q 376 49 457 49 q 216 107 279 49 q 151 264 153 165 q 208 414 153 346 q 271 475 236 447 q 346 521 307 503 l 346 521 m 525 750 q 463 673 503 704 q 378 618 420 643 l 378 618 q 314 707 349 652 q 286 758 297 733 q 273 806 273 785 q 315 895 275 863 q 407 925 353 925 q 476 909 447 925 q 518 867 504 893 q 525 750 550 811 l 525 750 m 677 258 l 427 555 q 503 604 467 581 q 565 656 539 627 q 623 807 622 709 q 567 945 622 889 q 414 1000 510 998 q 257 950 319 1000 q 189 804 191 900 q 224 685 189 739 q 296 581 254 629 q 129 460 197 538 q 57 271 58 383 q 149 57 58 136 q 370 -26 237 -25 q 685 118 562 -29 l 685 118 l 782 0 l 895 0 l 732 192 q 802 453 802 313 l 720 453 q 713 353 720 403 q 677 258 704 302 l 677 258 z "},"’":{"ha":309,"x_min":111,"x_max":212,"o":"m 212 1000 l 111 1000 l 111 878 l 158 878 l 158 831 q 144 770 158 790 q 111 739 129 749 l 111 688 q 184 739 157 701 q 212 836 212 777 l 212 1000 z "},"(":{"ha":463,"x_min":77,"x_max":385,"o":"m 314 1026 q 77 383 79 746 q 139 40 77 191 q 314 -265 200 -110 l 385 -265 q 172 376 178 25 q 385 1026 175 733 l 314 1026 z "},")":{"ha":463,"x_min":78,"x_max":386,"o":"m 149 -265 q 325 36 262 -118 q 386 378 386 191 q 325 722 386 572 q 149 1026 264 872 l 78 1026 q 290 385 285 736 q 78 -265 286 29 l 149 -265 z "},"*":{"ha":541,"x_min":61,"x_max":477,"o":"m 240 838 l 86 897 l 86 897 l 61 839 l 216 783 l 110 643 l 158 606 l 158 606 l 267 753 l 267 753 l 370 603 l 370 603 l 424 636 l 319 783 l 477 835 l 457 896 l 457 896 l 298 838 l 298 838 l 298 1000 l 240 1000 l 240 838 l 240 838 z "},"+":{"ha":917,"x_min":111,"x_max":806,"o":"m 416 389 l 111 389 l 111 306 l 416 306 l 416 0 l 500 0 l 500 306 l 806 306 l 806 389 l 500 389 l 500 694 l 416 694 l 416 389 z "},",":{"ha":386,"x_min":142,"x_max":243,"o":"m 243 122 l 142 122 l 142 0 l 189 0 l 189 -47 q 175 -109 189 -87 q 142 -139 160 -129 l 142 -191 q 215 -139 187 -176 q 243 -41 243 -101 l 243 122 z "},"-":{"ha":463,"x_min":56,"x_max":407,"o":"m 56 404 l 56 318 l 407 318 l 407 404 l 56 404 z "},"­":{"ha":463,"x_min":56,"x_max":407,"o":"m 56 404 l 56 318 l 407 318 l 407 404 l 56 404 z "},".":{"ha":386,"x_min":142,"x_max":243,"o":"m 243 0 l 243 122 l 142 122 l 142 0 l 243 0 z "},"/":{"ha":386,"x_min":-4,"x_max":400,"o":"m 400 1026 l 322 1026 l -4 -125 l 74 -125 l 400 1026 z "},":":{"ha":386,"x_min":142,"x_max":243,"o":"m 243 0 l 243 122 l 142 122 l 142 0 l 243 0 m 243 561 l 243 684 l 142 684 l 142 561 l 243 561 z "},";":{"ha":386,"x_min":142,"x_max":243,"o":"m 243 122 l 142 122 l 142 0 l 189 0 l 189 -47 q 175 -109 189 -87 q 142 -139 160 -129 l 142 -191 q 215 -139 187 -176 q 243 -41 243 -101 l 243 122 m 243 561 l 243 684 l 142 684 l 142 561 l 243 561 z "},"<":{"ha":917,"x_min":111,"x_max":806,"o":"m 221 354 l 806 612 l 806 701 l 806 701 l 111 391 l 111 318 l 806 -8 l 806 -8 l 806 81 l 221 354 z "},"=":{"ha":917,"x_min":111,"x_max":806,"o":"m 806 525 l 111 525 l 111 441 l 806 441 l 806 525 m 806 256 l 111 256 l 111 172 l 806 172 l 806 256 z "},">":{"ha":917,"x_min":111,"x_max":806,"o":"m 806 391 l 111 701 l 111 701 l 111 612 l 696 354 l 111 81 l 111 -8 l 111 -8 l 806 318 l 806 391 z "},"?":{"ha":694,"x_min":46,"x_max":656,"o":"m 380 253 q 385 339 379 294 q 410 418 387 382 q 485 504 441 465 q 564 581 525 543 q 631 663 604 618 q 656 765 654 705 q 353 1026 650 1019 q 130 941 215 1025 q 53 717 46 859 l 138 717 q 192 884 136 818 q 350 951 248 950 q 511 900 454 950 q 567 772 567 850 q 550 701 567 734 q 503 636 533 668 q 441 575 475 606 q 376 511 408 545 q 335 454 350 484 q 311 393 319 425 q 300 253 298 329 l 380 253 m 393 0 l 393 122 l 292 122 l 292 0 l 393 0 z "},"@":{"ha":1111,"x_min":56,"x_max":1055,"o":"m 950 232 q 582 43 811 46 q 268 175 390 45 q 139 494 140 302 q 264 821 140 689 q 579 957 385 954 q 855 860 743 956 q 972 591 969 764 q 905 370 970 475 q 836 288 876 319 q 751 254 795 254 q 711 289 711 254 q 728 367 711 319 l 868 786 l 775 786 l 754 722 l 754 722 q 692 791 732 768 q 599 814 650 814 q 458 775 521 814 q 350 673 396 737 q 254 393 256 542 q 307 248 254 306 q 447 184 357 186 q 612 254 543 186 l 612 254 q 661 200 627 216 q 732 182 696 182 q 950 302 850 184 q 1055 587 1053 418 q 917 903 1053 783 q 576 1026 782 1025 q 211 873 359 1023 q 56 504 58 726 q 208 130 58 281 q 582 -26 354 -24 q 843 43 722 -25 q 1032 232 965 111 l 950 232 m 468 272 q 389 311 416 272 q 359 400 359 349 q 427 614 359 505 q 503 699 458 665 q 602 732 547 730 q 671 703 646 730 q 697 631 697 673 q 631 406 696 526 q 558 313 600 350 q 468 272 517 277 l 468 272 z "},"A":{"ha":926,"x_min":21,"x_max":904,"o":"m 118 0 l 236 314 l 692 314 l 807 0 l 904 0 l 521 1000 l 414 1000 l 21 0 l 118 0 m 464 920 l 464 920 l 660 395 l 268 395 l 464 920 z "},"B":{"ha":926,"x_min":113,"x_max":847,"o":"m 207 477 l 458 477 q 672 443 593 479 q 753 282 751 403 q 679 117 753 157 q 447 81 603 78 l 207 81 l 207 477 m 207 920 l 425 920 q 644 882 579 920 q 707 749 708 842 q 651 610 708 659 q 446 558 591 558 l 207 558 l 207 920 m 521 0 q 757 64 667 0 q 847 282 846 127 q 642 530 847 490 l 642 533 q 753 594 704 543 q 802 749 800 646 q 726 932 803 864 q 473 1000 648 998 l 113 1000 l 113 0 l 521 0 z "},"C":{"ha":1003,"x_min":65,"x_max":930,"o":"m 920 709 q 532 1026 855 1025 q 200 907 329 1027 q 66 500 68 785 q 167 132 65 282 q 497 -26 268 -22 q 799 81 697 -24 q 930 329 900 180 l 832 329 q 725 134 804 208 q 515 54 646 56 q 237 196 315 57 q 179 340 197 260 q 161 503 161 418 q 244 814 160 686 q 507 946 326 943 q 822 709 764 950 l 920 709 z "},"D":{"ha":1003,"x_min":113,"x_max":930,"o":"m 454 0 q 647 24 555 0 q 808 122 739 47 q 904 301 876 200 q 929 501 929 401 q 896 728 930 607 q 762 925 861 850 q 616 989 694 977 q 454 1000 538 1000 l 113 1000 l 113 0 l 454 0 m 207 920 l 433 920 q 558 913 497 920 q 663 882 618 907 q 803 720 766 822 q 835 501 836 615 q 802 289 836 396 q 668 126 766 183 q 555 89 612 98 q 433 81 497 79 l 207 81 l 207 920 z "},"E":{"ha":848,"x_min":113,"x_max":791,"o":"m 791 0 l 791 81 l 207 81 l 207 477 l 722 477 l 722 558 l 207 558 l 207 920 l 778 920 l 778 1000 l 113 1000 l 113 0 l 791 0 z "},"F":{"ha":772,"x_min":103,"x_max":747,"o":"m 197 0 l 197 477 l 697 477 l 697 558 l 197 558 l 197 920 l 747 920 l 747 1000 l 103 1000 l 103 0 l 197 0 z "},"G":{"ha":1080,"x_min":74,"x_max":965,"o":"m 875 436 q 832 229 876 323 q 699 94 781 135 q 530 54 615 54 q 264 179 358 57 q 168 468 168 298 q 257 814 167 684 q 543 946 347 945 q 745 884 659 946 q 857 709 831 823 l 954 709 q 810 949 921 869 q 536 1026 697 1026 q 187 876 301 1023 q 74 505 74 732 q 199 107 75 240 q 511 -26 318 -26 q 747 28 657 -25 q 884 171 835 81 l 884 171 l 884 0 l 965 0 l 965 517 l 538 517 l 538 436 l 875 436 z "},"H":{"ha":1003,"x_min":111,"x_max":892,"o":"m 205 0 l 205 490 l 797 490 l 797 0 l 892 0 l 892 1000 l 797 1000 l 797 571 l 205 571 l 205 1000 l 111 1000 l 111 0 l 205 0 z "},"I":{"ha":386,"x_min":146,"x_max":240,"o":"m 240 0 l 240 1000 l 146 1000 l 146 0 l 240 0 z "},"J":{"ha":694,"x_min":31,"x_max":578,"o":"m 31 317 q 41 189 31 250 q 79 79 52 127 q 160 3 109 31 q 294 -26 211 -25 q 576 273 578 -24 l 576 1000 l 482 1000 l 482 277 q 306 60 486 61 q 204 83 241 60 q 150 142 168 106 q 130 225 135 179 q 125 317 125 269 l 31 317 z "},"K":{"ha":926,"x_min":118,"x_max":901,"o":"m 212 0 l 212 386 l 370 543 l 370 543 l 786 0 l 901 0 l 437 602 l 832 1000 l 725 1000 l 212 482 l 212 482 l 212 1000 l 118 1000 l 118 0 l 212 0 z "},"L":{"ha":772,"x_min":113,"x_max":743,"o":"m 743 0 l 743 81 l 207 81 l 207 1000 l 113 1000 l 113 0 l 743 0 z "},"M":{"ha":1157,"x_min":109,"x_max":1048,"o":"m 203 0 l 203 892 l 205 892 l 534 0 l 623 0 l 951 892 l 954 892 l 954 0 l 1048 0 l 1048 1000 l 905 1000 l 583 118 l 581 118 l 253 1000 l 109 1000 l 109 0 l 203 0 z "},"N":{"ha":1003,"x_min":110,"x_max":892,"o":"m 782 0 l 892 0 l 892 1000 l 797 1000 l 797 126 l 794 126 l 216 1000 l 110 1000 l 110 0 l 204 0 l 204 872 l 207 872 l 782 0 z "},"O":{"ha":1080,"x_min":74,"x_max":1006,"o":"m 74 498 q 192 129 74 279 q 539 -26 309 -24 q 889 129 771 -24 q 1006 498 1006 279 q 889 873 1006 725 q 534 1026 771 1023 q 193 872 311 1023 q 74 498 74 724 l 74 498 m 541 54 q 257 189 346 57 q 191 330 211 250 q 168 498 168 411 q 258 811 168 680 q 538 946 347 943 q 911 498 904 937 q 823 189 911 318 q 541 54 734 57 l 541 54 z "},"P":{"ha":848,"x_min":109,"x_max":802,"o":"m 203 0 l 203 441 l 416 441 q 679 498 562 439 q 800 721 797 558 q 734 918 802 838 q 636 979 700 956 q 473 1000 572 1000 l 109 1000 l 109 0 l 203 0 m 203 522 l 203 920 l 447 920 q 705 728 707 918 q 631 562 704 604 q 419 522 554 521 l 203 522 z "},"Q":{"ha":1080,"x_min":66,"x_max":998,"o":"m 848 94 q 998 498 998 249 q 528 1026 986 1022 q 180 867 294 1022 q 66 498 66 714 q 184 129 66 279 q 532 -26 301 -24 q 782 41 680 -25 l 782 41 l 929 -72 l 929 -72 l 982 -8 l 848 94 m 779 149 l 644 252 l 644 252 l 594 186 l 708 98 q 533 54 637 54 q 250 189 339 57 q 183 330 204 250 q 161 498 161 411 q 252 810 161 677 q 530 946 340 941 q 799 836 694 946 q 904 498 903 724 q 779 149 904 281 l 779 149 z "},"R":{"ha":926,"x_min":111,"x_max":850,"o":"m 205 534 l 205 920 l 505 920 q 675 883 606 921 q 729 826 709 864 q 749 733 749 789 q 677 582 747 629 q 500 534 608 534 l 205 534 m 503 454 q 539 454 522 454 q 572 452 555 454 q 631 435 604 447 q 676 397 659 422 q 701 332 693 374 q 711 260 707 304 q 715 164 714 215 q 726 72 720 115 q 746 0 732 28 l 850 0 l 850 9 q 822 66 832 22 q 808 222 812 113 q 806 304 810 262 q 789 383 802 346 q 753 450 778 420 q 680 493 726 477 q 843 737 846 559 q 503 1000 840 1003 l 111 1000 l 111 0 l 205 0 l 205 454 l 503 454 z "},"S":{"ha":848,"x_min":60,"x_max":787,"o":"m 60 298 q 164 56 61 136 q 422 -26 262 -26 q 787 265 782 -22 q 764 387 787 338 q 700 465 741 435 q 608 515 660 497 q 500 545 557 533 q 391 570 444 557 q 293 600 338 582 q 218 648 249 618 q 178 725 186 677 q 222 875 165 807 q 422 946 279 943 q 594 896 522 946 q 668 728 667 842 l 758 728 q 676 939 760 854 q 422 1026 591 1025 q 170 946 256 1023 q 83 758 83 867 q 111 639 83 686 q 179 559 138 590 q 278 511 224 529 q 389 479 332 493 q 503 453 448 467 q 599 415 555 439 q 668 357 643 393 q 693 261 693 319 q 635 118 693 178 q 439 54 574 56 q 244 110 322 53 q 151 298 165 167 l 60 298 z "},"T":{"ha":772,"x_min":22,"x_max":750,"o":"m 22 920 l 339 920 l 339 0 l 433 0 l 433 920 l 750 920 l 750 1000 l 22 1000 l 22 920 z "},"U":{"ha":1003,"x_min":113,"x_max":889,"o":"m 114 376 q 501 -26 113 -21 q 889 376 889 -22 l 889 1000 l 794 1000 l 794 404 q 501 54 802 53 q 208 404 204 49 l 208 1000 l 114 1000 l 114 376 z "},"V":{"ha":848,"x_min":25,"x_max":823,"o":"m 372 0 l 476 0 l 823 1000 l 725 1000 l 425 111 l 425 111 l 123 1000 l 25 1000 l 372 0 z "},"W":{"ha":1235,"x_min":20,"x_max":1215,"o":"m 669 1000 l 564 1000 l 332 134 l 329 134 l 114 1000 l 20 1000 l 278 0 l 382 0 l 614 883 l 616 883 l 848 0 l 953 0 l 1215 1000 l 1118 1000 l 900 134 l 897 134 l 669 1000 z "},"X":{"ha":848,"x_min":25,"x_max":822,"o":"m 422 441 l 714 0 l 822 0 l 479 514 l 807 1000 l 697 1000 l 422 579 l 422 579 l 149 1000 l 39 1000 l 370 514 l 25 0 l 132 0 l 422 441 l 422 441 z "},"Y":{"ha":848,"x_min":17,"x_max":831,"o":"m 419 518 l 125 1000 l 17 1000 l 374 429 l 374 0 l 468 0 l 468 436 l 831 1000 l 721 1000 l 419 518 l 419 518 z "},"Z":{"ha":848,"x_min":43,"x_max":804,"o":"m 804 0 l 804 81 l 160 81 l 800 921 l 800 1000 l 97 1000 l 97 920 l 684 920 l 43 79 l 43 0 l 804 0 z "},"[":{"ha":463,"x_min":126,"x_max":391,"o":"m 389 -265 l 389 -196 l 215 -196 l 215 957 l 391 957 l 391 1026 l 126 1026 l 126 -265 l 389 -265 z "},"\\":{"ha":386,"x_min":-14,"x_max":390,"o":"m 313 -125 l 390 -125 l 64 1026 l -14 1026 l 313 -125 z "},"]":{"ha":463,"x_min":71,"x_max":336,"o":"m 336 1026 l 74 1026 l 74 957 l 248 957 l 248 -196 l 71 -196 l 71 -265 l 336 -265 l 336 1026 z "},"^":{"ha":917,"x_min":101,"x_max":814,"o":"m 182 340 l 456 884 l 456 884 l 734 340 l 814 340 l 493 969 l 420 969 l 101 340 l 182 340 z "},"_":{"ha":694,"x_min":0,"x_max":694,"o":"m 0 -104 l 0 -174 l 694 -174 l 694 -104 l 0 -104 z "},"‘":{"ha":309,"x_min":96,"x_max":197,"o":"m 96 688 l 197 688 l 197 810 l 150 810 l 150 857 q 167 920 150 897 q 197 949 180 939 l 197 1000 q 125 950 153 987 q 96 851 96 912 l 96 688 z "},"a":{"ha":772,"x_min":64,"x_max":742,"o":"m 571 378 l 571 265 q 490 107 568 157 q 309 56 412 56 q 201 89 248 56 q 153 184 154 121 q 355 338 155 326 q 464 350 410 340 q 571 378 518 358 l 571 378 m 315 404 q 64 187 64 370 q 138 33 65 83 q 304 -20 207 -20 q 572 100 464 -18 l 572 100 q 586 32 574 62 q 639 -7 599 1 q 676 -11 657 -11 q 715 -4 696 -11 q 742 3 733 0 l 742 68 l 742 68 q 672 64 690 50 q 654 123 652 77 l 654 515 q 579 690 652 639 q 393 739 505 739 q 192 685 273 739 q 97 501 110 628 l 182 501 q 250 631 196 594 q 391 664 306 665 q 530 623 489 663 q 571 518 571 583 q 567 476 571 498 q 541 443 561 454 q 488 428 518 435 q 431 419 456 422 l 315 404 z "},"b":{"ha":848,"x_min":110,"x_max":771,"o":"m 193 362 q 258 575 193 489 q 436 664 322 661 q 628 570 565 663 q 682 338 689 476 q 612 130 679 201 q 436 56 545 56 q 257 144 318 57 q 193 362 193 231 l 193 362 m 193 126 l 196 126 q 306 20 236 56 q 446 -20 375 -18 q 697 90 619 -17 q 771 358 771 196 q 693 625 771 515 q 450 739 614 736 q 304 705 374 739 q 193 604 235 671 l 193 604 l 193 1000 l 110 1000 l 110 0 l 193 0 l 193 126 z "},"c":{"ha":772,"x_min":65,"x_max":705,"o":"m 694 493 q 396 739 650 741 q 151 625 235 736 q 65 358 65 514 q 146 90 65 196 q 396 -20 227 -17 q 608 56 532 -18 q 705 249 685 127 l 616 249 q 396 56 585 58 q 211 151 268 58 q 154 358 154 241 q 212 568 153 476 q 396 664 269 661 q 610 493 564 661 l 694 493 z "},"d":{"ha":848,"x_min":77,"x_max":739,"o":"m 656 362 q 594 144 656 231 q 412 56 532 57 q 239 130 306 56 q 167 338 171 201 q 224 570 163 476 q 412 664 283 663 q 591 575 528 661 q 656 362 656 489 l 656 362 m 656 604 l 656 604 q 546 705 614 671 q 399 739 477 739 q 157 625 235 736 q 78 358 78 515 q 154 90 77 196 q 403 -20 232 -17 q 546 20 475 -18 q 652 126 615 56 l 656 126 l 656 0 l 739 0 l 739 1000 l 656 1000 l 656 604 z "},"e":{"ha":772,"x_min":61,"x_max":709,"o":"m 151 410 q 224 589 164 515 q 393 664 283 663 q 564 590 505 663 q 621 410 621 519 l 151 410 m 709 340 q 393 739 700 736 q 151 628 237 736 q 62 357 62 519 q 142 90 61 195 q 393 -20 222 -17 q 603 50 529 -18 q 704 221 675 117 l 611 221 q 393 56 565 57 q 212 140 273 57 q 151 340 151 221 l 709 340 z "},"f":{"ha":386,"x_min":28,"x_max":357,"o":"m 135 650 l 135 0 l 218 0 l 218 650 l 357 650 l 357 720 l 218 720 l 218 808 q 231 903 216 861 q 307 945 244 943 q 357 937 330 945 l 357 1014 q 288 1019 325 1019 q 135 833 130 1015 l 135 720 l 28 720 l 28 650 l 135 650 z "},"g":{"ha":848,"x_min":77,"x_max":742,"o":"m 656 357 q 591 146 656 233 q 412 56 528 57 q 224 153 283 57 q 167 382 163 243 q 239 591 171 518 q 412 664 306 664 q 594 576 532 663 q 656 357 656 490 l 656 357 m 656 593 l 652 593 q 546 703 615 665 q 403 739 475 739 q 154 631 232 737 q 78 361 77 525 q 157 97 78 207 q 399 -20 235 -17 q 546 17 477 -20 q 656 115 614 50 l 656 115 q 651 -5 659 54 q 616 -113 643 -64 q 539 -189 590 -161 q 401 -220 488 -218 q 267 -193 326 -220 q 186 -87 207 -167 l 97 -87 q 118 -154 100 -119 q 174 -222 136 -191 q 401 -294 244 -292 q 673 -183 603 -292 q 739 69 742 -79 l 739 720 l 656 720 l 656 593 z "},"h":{"ha":772,"x_min":100,"x_max":671,"o":"m 183 0 l 183 387 q 201 524 182 458 q 273 622 224 582 q 401 664 323 663 q 587 469 590 664 l 587 0 l 671 0 l 671 471 q 667 558 671 517 q 635 636 661 599 q 415 739 553 742 q 288 707 342 739 q 183 619 232 675 l 183 619 l 183 1000 l 100 1000 l 100 0 l 183 0 z "},"i":{"ha":309,"x_min":109,"x_max":200,"o":"m 196 0 l 196 720 l 113 720 l 113 0 l 196 0 m 200 876 l 200 1000 l 109 1000 l 109 876 l 200 876 z "},"j":{"ha":309,"x_min":7,"x_max":210,"o":"m 122 720 l 122 -107 q 101 -187 123 -163 q 7 -204 78 -212 l 7 -278 q 61 -283 35 -283 q 140 -271 111 -283 q 183 -235 170 -258 q 205 -96 207 -187 l 205 720 l 122 720 m 210 1000 l 118 1000 l 118 876 l 210 876 l 210 1000 z "},"k":{"ha":694,"x_min":94,"x_max":676,"o":"m 178 0 l 178 272 l 314 401 l 314 401 l 583 0 l 676 0 l 375 460 l 644 720 l 530 720 l 178 378 l 178 378 l 178 1000 l 94 1000 l 94 0 l 178 0 z "},"l":{"ha":309,"x_min":113,"x_max":196,"o":"m 196 0 l 196 1000 l 113 1000 l 113 0 l 196 0 z "},"m":{"ha":1157,"x_min":89,"x_max":1067,"o":"m 172 387 q 183 490 172 436 q 220 582 193 545 q 382 664 286 664 q 504 619 471 664 q 536 497 536 575 l 536 0 l 619 0 l 619 387 q 631 490 619 436 q 667 582 640 545 q 829 664 733 664 q 951 619 918 664 q 983 497 983 575 l 983 0 l 1067 0 l 1067 454 q 1060 561 1067 509 q 1029 651 1051 611 q 962 715 1007 692 q 843 739 918 739 q 608 600 685 739 l 608 600 q 542 699 587 660 q 397 739 496 737 q 175 611 249 737 l 172 611 l 172 720 l 89 720 l 89 0 l 172 0 l 172 387 z "},"n":{"ha":772,"x_min":100,"x_max":671,"o":"m 183 387 q 201 524 182 458 q 273 622 224 582 q 401 664 323 663 q 587 469 590 664 l 587 0 l 671 0 l 671 471 q 667 558 671 517 q 635 636 661 599 q 415 739 553 742 q 288 707 342 739 q 183 619 232 675 l 183 619 l 183 720 l 100 720 l 100 0 l 183 0 l 183 387 z "},"o":{"ha":772,"x_min":53,"x_max":720,"o":"m 386 -20 q 629 86 541 -18 q 720 359 718 186 q 637 629 720 522 q 386 739 554 736 q 136 629 220 736 q 53 359 53 522 q 151 78 54 172 q 386 -20 244 -18 l 386 -20 m 631 359 q 575 150 631 240 q 386 56 517 57 q 205 142 267 57 q 142 359 142 224 q 199 571 142 481 q 386 664 256 661 q 575 576 518 663 q 631 359 632 490 l 631 359 z "},"p":{"ha":848,"x_min":110,"x_max":771,"o":"m 193 357 q 257 576 193 490 q 436 664 318 663 q 612 591 545 664 q 682 382 679 518 q 628 153 689 243 q 436 56 565 57 q 258 146 322 57 q 193 357 193 233 l 193 357 m 193 115 l 193 115 q 304 17 235 50 q 450 -20 374 -20 q 693 97 614 -17 q 771 361 771 207 q 697 631 771 525 q 446 739 619 737 q 306 703 375 739 q 196 593 236 665 l 193 593 l 193 720 l 110 720 l 110 -283 l 193 -283 l 193 115 z "},"q":{"ha":848,"x_min":77,"x_max":739,"o":"m 656 362 q 594 144 656 231 q 412 56 532 57 q 239 130 306 56 q 167 338 171 201 q 224 570 163 476 q 412 664 283 663 q 591 575 528 661 q 656 362 656 489 l 656 362 m 656 593 l 652 593 q 546 703 615 665 q 403 739 475 739 q 154 631 232 737 q 78 361 77 525 q 157 97 78 207 q 399 -20 235 -17 q 546 17 477 -20 q 656 115 614 50 l 656 115 l 656 -283 l 739 -283 l 739 720 l 656 720 l 656 593 z "},"r":{"ha":463,"x_min":104,"x_max":425,"o":"m 187 353 q 236 564 186 477 q 425 648 288 648 l 425 739 q 281 705 336 739 q 191 585 225 671 l 187 585 l 187 720 l 104 720 l 104 0 l 187 0 l 187 353 z "},"s":{"ha":694,"x_min":64,"x_max":631,"o":"m 64 225 q 140 53 71 121 q 338 -20 210 -18 q 549 35 467 -20 q 631 191 629 87 q 612 278 631 243 q 559 336 593 314 q 486 374 528 359 q 400 397 444 387 q 243 444 311 415 q 191 482 210 460 q 170 541 170 505 q 332 664 171 660 q 464 631 411 664 q 526 513 515 596 l 611 513 q 333 739 574 743 q 149 682 214 737 q 81 533 81 625 q 101 447 81 482 q 154 390 121 412 q 229 357 187 370 q 271 346 250 350 q 311 333 290 340 q 397 317 355 325 q 437 306 418 313 q 471 292 457 300 q 524 253 504 278 q 542 189 542 228 q 498 97 542 135 q 364 56 456 57 q 149 225 182 52 l 64 225 z "},"t":{"ha":386,"x_min":28,"x_max":353,"o":"m 353 65 q 285 56 319 56 q 224 81 235 56 q 212 157 211 106 l 212 650 l 347 650 l 347 720 l 212 720 l 212 920 l 129 920 l 129 720 l 28 720 l 28 650 l 129 650 l 129 123 q 164 12 129 46 q 257 -20 196 -20 q 314 -11 289 -18 q 353 -3 338 -5 l 353 65 z "},"u":{"ha":772,"x_min":98,"x_max":671,"o":"m 587 328 q 530 134 587 207 q 368 56 473 57 q 183 248 180 57 l 183 720 l 100 720 l 100 245 q 157 58 98 132 q 355 -20 214 -18 q 440 -5 403 -18 q 503 22 476 5 q 551 62 530 41 q 587 100 572 82 l 587 100 l 587 0 l 671 0 l 671 720 l 587 720 l 587 328 z "},"v":{"ha":694,"x_min":24,"x_max":671,"o":"m 298 0 l 391 0 l 671 720 l 581 720 l 347 103 l 347 103 l 114 720 l 24 720 l 298 0 z "},"w":{"ha":1003,"x_min":21,"x_max":982,"o":"m 708 111 l 550 720 l 457 720 l 290 106 l 290 106 l 104 720 l 21 720 l 240 0 l 340 0 l 500 604 l 503 604 l 660 0 l 749 0 l 982 720 l 897 720 l 708 111 l 708 111 z "},"x":{"ha":694,"x_min":25,"x_max":668,"o":"m 350 311 l 568 0 l 668 0 l 399 372 l 659 720 l 553 720 l 349 433 l 349 433 l 150 720 l 47 720 l 301 372 l 25 0 l 126 0 l 350 311 l 350 311 z "},"y":{"ha":694,"x_min":25,"x_max":669,"o":"m 94 -273 q 174 -283 129 -282 q 307 -203 258 -282 q 401 9 354 -126 l 669 720 l 579 720 l 349 101 l 349 101 l 118 720 l 25 720 l 304 -5 q 283 -61 294 -29 q 258 -127 273 -96 q 222 -180 244 -159 q 164 -204 200 -203 q 94 -196 127 -203 l 94 -273 z "},"z":{"ha":694,"x_min":46,"x_max":648,"o":"m 648 0 l 648 69 l 153 69 l 631 646 l 631 720 l 78 720 l 78 650 l 524 650 l 46 74 l 46 0 l 648 0 z "},"{":{"ha":463,"x_min":62,"x_max":387,"o":"m 176 549 q 158 443 178 482 q 62 382 138 404 l 62 379 q 155 325 132 366 q 176 218 178 283 l 176 -65 q 221 -218 175 -171 q 387 -265 267 -268 l 387 -262 q 265 -94 262 -229 l 265 192 q 243 318 265 271 q 151 379 220 364 l 151 382 q 245 457 222 403 q 265 589 265 510 l 265 855 q 378 1023 264 985 q 218 977 261 1029 q 176 802 175 924 l 176 549 z "},"|":{"ha":309,"x_min":113,"x_max":196,"o":"m 113 1042 l 113 -347 l 196 -347 l 196 1042 l 113 1042 z "},"}":{"ha":463,"x_min":71,"x_max":396,"o":"m 282 832 q 239 987 283 937 q 71 1032 192 1035 l 71 1029 q 193 861 195 996 l 193 575 q 216 452 192 497 q 307 387 240 404 l 307 385 q 214 313 236 366 q 193 178 192 260 l 193 -89 q 81 -257 193 -218 q 241 -208 199 -261 q 282 -35 283 -157 l 282 218 q 301 326 281 286 q 396 385 322 366 l 396 387 q 304 444 328 403 q 282 549 281 485 l 282 832 z "},"~":{"ha":917,"x_min":111,"x_max":806,"o":"m 307 450 q 241 437 271 450 q 189 401 212 422 q 147 355 167 380 q 111 307 127 330 l 157 241 l 157 241 q 184 286 170 262 q 218 329 200 310 q 260 361 237 349 q 307 372 281 372 q 368 358 339 372 q 424 330 397 345 q 517 294 463 315 q 611 272 571 272 q 729 321 682 273 q 806 424 777 366 l 750 471 l 750 471 q 696 393 732 431 q 659 364 679 375 q 612 350 637 350 q 550 367 586 350 q 469 400 513 380 q 387 435 429 419 q 307 450 346 450 l 307 450 z "},"¡":{"ha":463,"x_min":180,"x_max":282,"o":"m 200 489 l 180 52 l 180 -260 l 282 -260 l 282 52 l 262 489 l 200 489 m 282 618 l 282 739 l 180 739 l 180 618 l 282 618 z "},"¢":{"ha":772,"x_min":62,"x_max":703,"o":"m 265 94 l 265 94 q 180 207 207 136 q 151 358 151 278 q 210 568 150 476 q 393 664 267 661 q 450 657 422 664 l 265 94 m 510 633 l 510 633 q 607 493 582 589 l 692 493 q 536 713 665 660 l 597 899 l 530 899 l 475 732 q 393 739 437 739 q 158 642 249 739 q 62 358 64 543 q 106 149 62 240 q 239 12 150 58 l 171 -196 l 236 -196 l 298 -8 q 393 -20 342 -20 q 610 62 530 -17 q 703 249 688 139 l 614 249 q 393 56 582 58 q 322 65 355 56 l 510 633 z "},"£":{"ha":772,"x_min":35,"x_max":736,"o":"m 256 507 q 228 561 243 534 q 196 611 211 586 q 163 721 164 660 q 232 860 164 814 q 385 904 298 904 q 607 677 590 901 l 699 677 q 612 900 699 819 q 383 979 524 978 q 153 908 229 978 q 74 725 74 838 q 103 594 75 643 q 127 549 115 570 q 147 507 139 528 l 35 507 l 35 448 l 172 448 q 201 326 201 390 q 158 186 200 249 q 54 77 117 121 l 103 -4 q 174 28 139 12 q 249 41 210 41 q 322 33 288 41 q 385 11 355 25 q 443 -8 416 0 q 494 -20 469 -20 q 628 1 575 -20 q 736 78 679 24 l 689 149 l 689 149 q 623 94 659 117 q 539 69 587 69 q 424 98 473 71 q 366 119 397 111 q 285 127 332 127 q 220 117 252 127 q 161 90 189 106 l 158 93 q 252 212 212 146 q 292 354 290 278 q 277 448 290 403 l 486 448 l 486 507 l 256 507 z "},"∕":{"ha":232,"x_min":-228,"x_max":460,"o":"m -157 -20 l 460 979 l 389 979 l -228 -20 l -157 -20 z "},"¥":{"ha":772,"x_min":5,"x_max":766,"o":"m 385 518 l 111 1000 l 5 1000 l 243 603 l 89 603 l 89 528 l 289 528 l 342 436 l 342 378 l 89 378 l 89 302 l 342 302 l 342 0 l 431 0 l 431 302 l 684 302 l 684 378 l 431 378 l 431 436 l 484 528 l 684 528 l 684 603 l 529 603 l 766 1000 l 665 1000 l 385 518 l 385 518 z "},"ƒ":{"ha":772,"x_min":18,"x_max":749,"o":"m 749 991 q 651 1019 703 1019 q 528 981 575 1019 q 453 880 479 941 q 429 818 440 851 q 410 751 418 785 q 379 622 393 682 l 211 622 l 211 555 l 368 555 l 328 330 q 241 -57 288 81 q 117 -196 197 -195 q 45 -178 78 -197 l 18 -257 q 94 -272 56 -271 q 285 -164 225 -269 q 336 -49 315 -114 q 370 89 355 17 l 458 555 l 629 555 l 629 622 l 469 622 q 492 724 482 671 q 515 822 501 775 q 553 901 529 869 q 614 940 575 933 q 675 941 652 947 q 721 924 699 936 l 749 991 z "},"§":{"ha":772,"x_min":66,"x_max":705,"o":"m 264 621 l 504 473 q 589 412 549 450 q 631 319 629 375 q 593 227 629 264 q 507 163 555 187 l 507 163 l 260 322 q 182 387 218 349 q 154 429 165 407 q 142 476 142 452 q 176 564 142 529 q 264 621 208 599 l 264 621 m 390 142 q 493 65 444 111 q 530 16 517 43 q 545 -46 545 -12 q 497 -143 543 -110 q 390 -176 452 -176 q 215 1 215 -174 l 130 1 q 389 -252 147 -245 q 561 -196 492 -250 q 633 -36 632 -142 q 602 66 632 26 q 575 98 589 86 q 553 117 562 111 q 611 160 585 138 q 660 207 639 182 q 705 333 704 256 q 633 486 703 424 q 558 545 600 518 q 469 596 517 571 q 383 646 425 621 q 306 697 339 671 q 253 753 272 724 q 231 817 231 782 q 277 920 232 886 q 386 951 319 951 q 558 778 558 951 l 633 778 q 393 1026 631 1021 q 207 968 269 1025 q 142 825 142 909 q 164 739 142 777 q 215 665 183 703 q 111 589 153 640 q 66 465 66 536 q 106 347 66 396 q 208 256 142 296 l 390 142 z "},"¤":{"ha":772,"x_min":36,"x_max":736,"o":"m 45 153 l 117 79 l 117 79 l 178 139 l 178 139 q 379 69 267 71 q 594 139 500 69 l 594 139 l 656 79 l 656 79 l 728 153 l 668 211 q 734 410 733 300 q 668 627 736 530 l 728 686 l 656 760 l 656 760 l 594 700 l 594 700 q 391 768 504 766 q 178 700 273 768 l 178 700 l 117 760 l 117 760 l 45 686 l 104 627 q 37 416 36 533 q 104 211 37 304 l 45 153 m 391 668 q 565 596 496 668 q 636 420 635 524 q 562 241 635 313 q 383 168 490 170 q 211 243 281 170 q 138 416 139 314 q 210 599 139 528 q 391 668 281 668 l 391 668 z "},"'":{"ha":309,"x_min":118,"x_max":191,"o":"m 118 686 l 191 686 l 191 1000 l 118 1000 l 118 686 z "},"“":{"ha":541,"x_min":119,"x_max":431,"o":"m 329 688 l 431 688 l 431 810 l 383 810 l 383 857 q 400 920 383 897 q 431 949 414 939 l 431 1000 q 358 950 386 987 q 329 851 329 912 l 329 688 m 119 688 l 221 688 l 221 810 l 174 810 l 174 857 q 191 920 174 897 q 221 949 204 939 l 221 1000 q 149 950 176 987 q 119 851 119 912 l 119 688 z "},"«":{"ha":772,"x_min":157,"x_max":615,"o":"m 412 317 l 615 163 l 615 163 l 615 249 l 471 359 l 615 473 l 615 561 l 615 561 l 412 404 l 412 317 m 157 317 l 359 163 l 359 163 l 359 249 l 215 359 l 359 473 l 359 561 l 359 561 l 157 404 l 157 317 z "},"‹":{"ha":541,"x_min":168,"x_max":371,"o":"m 168 317 l 371 163 l 371 163 l 371 249 l 227 359 l 371 473 l 371 561 l 371 561 l 168 404 l 168 317 z "},"›":{"ha":541,"x_min":170,"x_max":372,"o":"m 372 407 l 170 561 l 170 561 l 170 475 l 314 364 l 170 250 l 170 163 l 170 163 l 372 319 l 372 407 z "},"":{"ha":694,"x_min":18,"x_max":604,"o":"m 127 650 l 127 0 l 211 0 l 211 650 l 347 650 l 347 720 l 211 720 l 211 808 q 224 903 210 861 q 300 945 237 943 q 350 937 323 945 l 350 1014 q 281 1019 318 1019 q 127 833 123 1015 l 127 720 l 18 720 l 18 650 l 127 650 m 600 0 l 600 720 l 517 720 l 517 0 l 600 0 m 604 1000 l 513 1000 l 513 876 l 604 876 l 604 1000 z "},"":{"ha":694,"x_min":18,"x_max":600,"o":"m 127 650 l 127 0 l 211 0 l 211 650 l 347 650 l 347 720 l 211 720 l 211 808 q 224 903 210 861 q 300 945 237 943 q 350 937 323 945 l 350 1014 q 281 1019 318 1019 q 127 833 123 1015 l 127 720 l 18 720 l 18 650 l 127 650 m 600 0 l 600 1000 l 517 1000 l 517 0 l 600 0 z "},"–":{"ha":694,"x_min":0,"x_max":694,"o":"m 694 391 l 0 391 l 0 330 l 694 330 l 694 391 z "},"†":{"ha":772,"x_min":52,"x_max":721,"o":"m 345 -231 l 428 -231 l 428 606 l 721 606 l 721 680 l 428 680 l 428 1000 l 345 1000 l 345 680 l 52 680 l 52 606 l 345 606 l 345 -231 z "},"‡":{"ha":772,"x_min":52,"x_max":721,"o":"m 345 151 l 52 151 l 52 77 l 345 77 l 345 -231 l 428 -231 l 428 77 l 721 77 l 721 151 l 428 151 l 428 615 l 721 615 l 721 690 l 428 690 l 428 1000 l 345 1000 l 345 690 l 52 690 l 52 615 l 345 615 l 345 151 z "},"∙":{"ha":386,"x_min":125,"x_max":260,"o":"m 193 553 q 147 533 167 553 q 125 486 125 514 q 146 439 125 458 q 193 418 165 418 q 241 439 222 418 q 260 486 260 458 q 193 553 257 550 l 193 553 z "},"¶":{"ha":903,"x_min":92,"x_max":703,"o":"m 358 -203 l 441 -203 l 441 907 l 619 907 l 619 -203 l 703 -203 l 703 1000 l 401 1000 q 92 730 96 997 q 172 546 93 621 q 358 467 249 469 l 358 -203 z "},"•":{"ha":694,"x_min":97,"x_max":597,"o":"m 597 498 q 525 677 596 606 q 346 750 453 749 q 172 677 241 749 q 97 498 98 606 q 172 325 98 395 q 346 250 241 252 q 525 325 453 252 q 597 498 596 395 l 597 498 z "},"‚":{"ha":309,"x_min":111,"x_max":212,"o":"m 212 122 l 111 122 l 111 0 l 158 0 l 158 -47 q 144 -109 158 -87 q 111 -139 129 -129 l 111 -191 q 184 -139 157 -176 q 212 -41 212 -101 l 212 122 z "},"„":{"ha":541,"x_min":110,"x_max":420,"o":"m 420 122 l 319 122 l 319 0 l 367 0 l 367 -47 q 353 -109 367 -87 q 319 -139 338 -129 l 319 -191 q 393 -139 366 -176 q 420 -41 420 -101 l 420 122 m 211 122 l 110 122 l 110 0 l 157 0 l 157 -47 q 143 -109 157 -87 q 110 -139 127 -129 l 110 -191 q 183 -139 155 -176 q 211 -41 211 -101 l 211 122 z "},"”":{"ha":541,"x_min":110,"x_max":420,"o":"m 420 1000 l 319 1000 l 319 878 l 367 878 l 367 831 q 353 770 367 790 q 319 739 338 749 l 319 688 q 393 739 366 701 q 420 836 420 777 l 420 1000 m 211 1000 l 110 1000 l 110 878 l 157 878 l 157 831 q 143 770 157 790 q 110 739 127 749 l 110 688 q 183 739 155 701 q 211 836 211 777 l 211 1000 z "},"»":{"ha":772,"x_min":157,"x_max":615,"o":"m 615 407 l 412 561 l 412 561 l 412 475 l 557 364 l 412 250 l 412 163 l 412 163 l 615 319 l 615 407 m 359 407 l 157 561 l 157 561 l 157 475 l 301 364 l 157 250 l 157 163 l 157 163 l 359 319 l 359 407 z "},"…":{"ha":1389,"x_min":182,"x_max":1208,"o":"m 283 0 l 283 122 l 182 122 l 182 0 l 283 0 m 746 0 l 746 122 l 644 122 l 644 0 l 746 0 m 1208 0 l 1208 122 l 1107 122 l 1107 0 l 1208 0 z "},"‰":{"ha":1389,"x_min":20,"x_max":1368,"o":"m 1161 415 q 1017 354 1075 414 q 953 207 954 296 q 1015 61 954 119 q 1161 0 1074 1 q 1308 61 1250 1 q 1368 207 1367 119 q 1308 354 1367 296 q 1161 415 1250 414 l 1161 415 m 1161 79 q 1072 118 1109 79 q 1032 207 1032 155 q 1071 298 1032 261 q 1161 336 1108 335 q 1251 297 1215 335 q 1289 207 1287 261 q 1250 118 1287 155 q 1161 79 1213 79 l 1161 79 m 227 969 q 82 908 140 968 q 20 762 21 850 q 81 618 21 676 q 227 554 139 555 q 374 616 315 555 q 435 762 433 675 q 374 909 433 851 q 227 969 315 968 l 227 969 m 227 890 q 318 852 281 889 q 355 762 355 817 q 317 673 354 711 q 227 633 281 633 q 138 673 175 633 q 98 762 98 711 q 138 852 98 817 q 227 890 172 889 l 227 890 m 657 415 q 513 354 571 414 q 450 207 452 296 q 511 62 452 121 q 657 0 570 1 q 804 61 746 1 q 865 207 864 119 q 804 354 864 296 q 657 415 746 414 l 657 415 m 657 79 q 568 118 606 79 q 529 207 529 155 q 568 297 529 261 q 657 336 603 335 q 749 297 711 335 q 786 207 785 261 q 747 118 785 155 q 657 79 709 79 l 657 79 m 193 -20 l 758 979 l 685 979 l 119 -20 l 193 -20 z "},"¿":{"ha":694,"x_min":39,"x_max":650,"o":"m 557 22 q 504 -143 559 -78 q 345 -212 447 -211 q 186 -159 241 -211 q 127 -33 127 -110 q 147 40 127 5 q 193 106 165 74 q 256 168 222 138 q 318 228 288 197 q 385 349 371 285 q 395 415 393 380 q 395 486 397 448 l 314 486 q 313 401 314 444 q 285 321 307 359 q 214 237 254 273 q 132 161 172 199 q 66 79 93 125 q 39 -26 39 33 q 342 -288 43 -281 q 565 -201 481 -286 q 642 22 650 -118 l 557 22 m 301 739 l 301 616 l 403 616 l 403 739 l 301 739 z "},"`":{"ha":463,"x_min":62,"x_max":325,"o":"m 254 797 l 325 797 l 171 990 l 62 990 l 254 797 z "},"´":{"ha":463,"x_min":151,"x_max":412,"o":"m 222 797 l 412 990 l 306 990 l 151 797 l 222 797 z "},"ˆ":{"ha":463,"x_min":33,"x_max":441,"o":"m 237 939 l 237 939 l 351 797 l 441 797 l 285 990 l 192 990 l 33 797 l 123 797 l 237 939 z "},"˜":{"ha":463,"x_min":22,"x_max":457,"o":"m 72 814 q 96 861 81 842 q 140 882 110 880 q 237 851 187 879 q 290 831 262 840 q 343 819 315 819 q 407 844 382 819 q 446 903 432 868 q 457 956 454 928 l 404 956 q 387 909 400 929 q 343 886 374 886 q 260 912 307 888 q 215 935 236 924 q 172 946 193 943 q 104 940 136 954 q 50 896 72 925 q 22 814 28 864 l 72 814 z "},"¯":{"ha":463,"x_min":32,"x_max":443,"o":"m 32 850 l 443 850 l 443 912 l 32 912 l 32 850 z "},"˘":{"ha":463,"x_min":39,"x_max":439,"o":"m 39 981 q 232 806 60 808 q 439 981 411 806 l 387 981 q 239 868 357 867 q 93 981 121 867 l 39 981 z "},"˙":{"ha":463,"x_min":186,"x_max":277,"o":"m 186 811 l 277 811 l 277 953 l 186 953 l 186 811 z "},"¨":{"ha":463,"x_min":83,"x_max":395,"o":"m 83 811 l 174 811 l 174 953 l 83 953 l 83 811 m 304 811 l 395 811 l 395 953 l 304 953 l 304 811 z "},"˚":{"ha":463,"x_min":93,"x_max":370,"o":"m 232 803 q 329 844 290 804 q 370 940 368 883 q 329 1039 368 998 q 232 1079 290 1078 q 136 1039 176 1078 q 93 940 93 998 q 135 844 94 883 q 232 803 174 804 l 232 803 m 232 848 q 168 876 195 848 q 139 940 139 903 q 168 1007 139 979 q 232 1034 195 1034 q 297 1006 271 1032 q 323 940 323 979 q 297 878 323 904 q 232 848 271 848 l 232 848 z "},"¸":{"ha":463,"x_min":75,"x_max":367,"o":"m 75 -261 q 201 -288 136 -286 q 319 -253 271 -288 q 354 -146 367 -220 q 322 -96 350 -118 q 248 -74 294 -74 q 197 -82 222 -74 l 262 0 l 208 0 l 125 -114 l 146 -132 q 207 -121 176 -121 q 256 -134 236 -121 q 277 -175 275 -146 q 248 -224 275 -210 q 184 -240 218 -240 q 96 -220 139 -239 l 75 -261 z "},"˛":{"ha":463,"x_min":103,"x_max":317,"o":"m 207 0 q 135 -57 165 -21 q 103 -143 103 -93 q 147 -232 104 -201 q 244 -264 189 -264 q 317 -252 282 -264 l 317 -191 q 258 -203 289 -203 q 196 -182 222 -203 q 165 -123 165 -163 q 204 -50 167 -82 q 277 -3 240 -20 l 277 0 l 207 0 z "},"ˇ":{"ha":463,"x_min":33,"x_max":441,"o":"m 237 848 l 237 848 l 123 990 l 33 990 l 192 797 l 285 797 l 441 990 l 351 990 l 237 848 z "},"—":{"ha":1389,"x_min":0,"x_max":1389,"o":"m 1389 330 l 1389 391 l 0 391 l 0 330 l 1389 330 z "},"Æ":{"ha":1389,"x_min":7,"x_max":1333,"o":"m 101 0 l 235 314 l 656 314 l 656 0 l 1333 0 l 1333 81 l 750 81 l 750 477 l 1265 477 l 1265 558 l 750 558 l 750 920 l 1316 920 l 1316 1000 l 441 1000 l 7 0 l 101 0 m 497 920 l 656 920 l 656 395 l 273 395 l 497 920 z "},"ª":{"ha":464,"x_min":11,"x_max":452,"o":"m 340 742 q 288 646 339 677 q 170 612 237 612 q 98 633 130 612 q 65 693 66 654 q 103 760 65 737 q 200 785 139 781 q 271 793 236 787 q 340 810 307 797 l 340 742 m 174 825 q 11 694 11 804 q 60 603 12 632 q 167 571 104 571 q 340 643 271 571 l 340 643 q 351 603 342 619 q 385 578 358 583 q 427 578 411 576 q 452 585 440 581 l 452 623 q 407 621 419 612 q 395 657 393 629 l 395 892 q 346 997 393 966 q 225 1026 298 1026 q 94 994 146 1026 q 32 883 40 960 l 87 883 q 224 985 107 987 q 314 960 286 983 q 340 893 340 933 q 339 868 340 882 q 321 848 335 855 q 249 835 286 836 l 174 825 z "},"Ł":{"ha":772,"x_min":0,"x_max":743,"o":"m 743 0 l 743 81 l 207 81 l 207 570 l 319 625 l 319 708 l 319 708 l 207 652 l 207 652 l 207 1000 l 113 1000 l 113 583 l 0 528 l 0 444 l 0 444 l 113 500 l 113 500 l 113 0 l 743 0 z "},"Ø":{"ha":1080,"x_min":58,"x_max":1022,"o":"m 241 204 l 241 204 q 164 498 164 329 q 254 810 164 677 q 533 946 343 941 q 693 916 629 946 q 794 839 755 884 l 241 204 m 839 778 l 839 778 q 907 498 907 651 q 819 189 907 318 q 536 54 730 57 q 288 149 375 56 l 839 778 m 968 1038 l 852 905 l 852 905 q 530 1026 721 1027 q 192 875 310 1023 q 69 498 69 726 q 182 136 69 281 l 58 -4 l 113 -52 l 113 -52 l 231 83 l 231 83 q 534 -26 346 -25 q 884 129 766 -24 q 1002 498 1002 279 q 901 850 996 754 l 1022 989 l 968 1038 l 968 1038 z "},"Œ":{"ha":1389,"x_min":56,"x_max":1343,"o":"m 760 307 q 747 210 760 253 q 692 129 734 167 q 492 54 604 56 q 233 180 314 56 q 151 501 151 302 q 481 946 154 945 q 760 692 754 945 l 760 307 m 764 100 l 764 0 l 1343 0 l 1343 81 l 854 81 l 854 477 l 1299 477 l 1299 558 l 854 558 l 854 920 l 1329 920 l 1329 1000 l 764 1000 l 764 895 l 764 895 q 644 1002 715 972 q 481 1026 571 1027 q 158 872 260 1023 q 57 498 56 724 q 157 135 56 288 q 485 -26 257 -22 q 651 12 586 -25 q 764 100 717 49 l 764 100 z "},"º":{"ha":464,"x_min":16,"x_max":448,"o":"m 232 571 q 390 635 330 571 q 448 799 447 694 q 396 961 448 897 q 232 1026 342 1025 q 69 961 123 1025 q 16 799 16 897 q 79 631 17 686 q 232 571 140 572 l 232 571 m 69 799 q 109 928 69 872 q 232 985 147 983 q 357 930 318 983 q 395 799 395 878 q 357 672 395 728 q 232 612 318 614 q 113 667 154 614 q 69 799 69 718 l 69 799 z "},"æ":{"ha":1235,"x_min":53,"x_max":1178,"o":"m 546 380 l 546 283 q 293 56 546 61 q 143 196 146 56 q 189 293 144 264 q 296 330 232 321 q 429 350 361 342 q 546 380 496 357 l 546 380 m 635 410 q 647 494 635 450 q 686 576 660 538 q 758 640 713 615 q 868 664 804 664 q 1034 589 979 663 q 1087 410 1087 517 l 635 410 m 304 410 q 54 183 53 376 q 122 31 56 81 q 286 -20 187 -20 q 486 33 418 -17 q 546 85 521 57 q 589 139 571 113 l 589 139 q 867 -20 684 -20 q 1171 222 1112 -17 l 1083 222 q 873 56 1040 58 q 692 140 747 57 q 635 340 635 221 l 1177 340 q 1115 623 1178 511 q 871 739 1048 736 q 729 715 790 739 q 619 621 667 690 l 619 621 q 515 717 587 692 q 368 739 441 739 q 175 685 253 739 q 85 505 96 628 l 171 505 q 235 629 182 593 q 371 664 288 664 q 507 632 467 664 q 546 507 546 597 q 542 473 546 486 q 519 448 536 460 q 383 418 488 429 l 304 410 z "},"ı":{"ha":309,"x_min":109,"x_max":192,"o":"m 192 0 l 192 720 l 109 720 l 109 0 l 192 0 z "},"ł":{"ha":309,"x_min":14,"x_max":294,"o":"m 196 0 l 196 542 l 294 597 l 294 680 l 294 680 l 196 625 l 196 625 l 196 1000 l 113 1000 l 113 555 l 14 500 l 14 416 l 14 416 l 113 472 l 113 472 l 113 0 l 196 0 z "},"ø":{"ha":772,"x_min":49,"x_max":724,"o":"m 187 172 l 187 172 q 144 358 146 229 q 201 570 144 479 q 389 664 258 661 q 490 644 452 663 q 549 602 530 625 l 187 172 m 590 551 l 590 551 q 633 358 635 468 q 578 150 633 240 q 389 56 519 57 q 301 72 345 56 q 225 118 257 87 l 590 551 m 98 -32 l 174 57 l 174 57 q 258 5 204 28 q 389 -20 313 -18 q 636 86 550 -18 q 722 358 722 189 q 647 618 722 514 l 724 708 l 675 751 l 675 751 l 603 665 l 603 665 q 389 739 522 737 q 139 629 222 736 q 56 358 56 521 q 129 103 54 208 l 49 8 l 98 -32 l 98 -32 z "},"œ":{"ha":1311,"x_min":49,"x_max":1258,"o":"m 1255 340 q 1198 618 1258 503 q 1105 707 1165 675 q 950 739 1046 739 q 665 565 754 739 l 665 565 q 376 739 578 741 q 129 629 207 736 q 50 358 49 521 q 140 83 52 183 q 371 -20 225 -18 q 665 155 571 -20 l 665 155 q 777 32 703 79 q 950 -20 847 -18 q 1246 222 1186 -18 l 1161 222 q 953 56 1120 60 q 835 87 882 56 q 757 160 786 115 q 718 254 728 205 q 714 279 717 267 q 709 300 713 290 q 709 340 708 321 l 1255 340 m 139 346 q 197 579 136 494 q 370 664 257 663 q 558 582 496 663 q 621 374 621 503 q 559 146 621 232 q 378 56 497 57 q 199 143 257 57 q 139 346 139 227 l 139 346 m 709 410 q 778 589 717 517 q 946 664 839 663 q 1115 593 1063 663 q 1166 410 1166 522 l 709 410 z "},"ß":{"ha":694,"x_min":71,"x_max":637,"o":"m 293 521 q 549 277 550 525 q 472 98 547 153 q 293 61 399 43 l 293 61 l 293 -12 q 345 -20 315 -20 q 637 311 633 -17 q 600 461 637 393 q 484 559 562 530 q 570 647 538 599 q 600 761 600 694 q 526 951 599 883 q 332 1019 454 1019 q 72 755 71 1017 l 72 0 l 155 0 l 155 741 q 163 825 155 787 q 186 889 168 863 q 241 930 204 917 q 336 945 277 945 q 471 893 429 943 q 511 762 511 843 q 448 631 510 668 q 293 590 389 590 l 293 521 z "},"÷":{"ha":917,"x_min":111,"x_max":806,"o":"m 111 306 l 806 306 l 806 389 l 111 389 l 111 306 m 510 0 l 510 122 l 408 122 l 408 0 l 510 0 m 510 572 l 510 694 l 408 694 l 408 572 l 510 572 z "},"¾":{"ha":1158,"x_min":56,"x_max":1103,"o":"m 957 501 l 957 501 l 957 191 l 724 191 l 957 501 m 957 0 l 1015 0 l 1015 144 l 1103 144 l 1103 191 l 1015 191 l 1015 582 l 962 582 l 667 191 l 667 144 l 957 144 l 957 0 m 225 722 q 370 703 311 729 q 429 604 425 676 q 387 514 432 551 q 272 472 343 473 q 158 509 201 472 q 114 608 114 542 l 56 608 q 119 468 65 509 q 282 428 172 427 q 435 482 382 432 q 488 606 488 532 q 467 689 489 648 q 375 750 443 730 q 465 882 465 789 q 412 991 464 954 q 283 1026 361 1026 q 208 1019 244 1026 q 139 987 171 1013 q 78 855 77 933 l 135 855 q 174 947 135 912 q 272 982 211 982 q 368 958 329 982 q 407 878 406 932 q 357 789 406 812 q 225 765 309 764 l 225 722 m 359 -20 l 977 979 l 905 979 l 289 -20 l 359 -20 z "},"¼":{"ha":1158,"x_min":56,"x_max":1103,"o":"m 957 0 l 1015 0 l 1015 144 l 1103 144 l 1103 191 l 1015 191 l 1015 582 l 962 582 l 667 191 l 667 144 l 957 144 l 957 0 m 957 501 l 957 501 l 957 191 l 724 191 l 957 501 m 304 -20 l 921 979 l 850 979 l 233 -20 l 304 -20 m 220 439 l 278 439 l 278 1026 l 232 1026 q 174 933 218 954 q 56 911 129 912 l 56 875 l 220 875 l 220 439 z "},"¹":{"ha":463,"x_min":121,"x_max":343,"o":"m 285 439 l 343 439 l 343 1026 l 297 1026 q 239 933 283 954 q 121 911 195 912 l 121 875 l 285 875 l 285 439 z "},"×":{"ha":917,"x_min":115,"x_max":803,"o":"m 167 8 l 460 300 l 460 300 l 751 8 l 751 8 l 803 58 l 511 351 l 803 644 l 751 694 l 751 694 l 460 403 l 460 403 l 167 694 l 167 694 l 115 644 l 408 351 l 115 58 l 167 8 l 167 8 z "},"®":{"ha":1111,"x_min":29,"x_max":1082,"o":"m 557 -26 q 929 129 782 -24 q 1082 501 1079 277 q 929 873 1079 724 q 557 1026 782 1023 q 184 873 332 1023 q 29 501 32 724 q 184 129 32 277 q 557 -26 332 -24 l 557 -26 m 557 43 q 239 176 361 45 q 113 501 114 304 q 239 825 114 697 q 557 957 361 954 q 875 825 753 954 q 998 501 997 697 q 875 176 997 304 q 557 43 753 45 l 557 43 m 642 477 q 774 518 722 479 q 826 639 825 554 q 782 754 826 713 q 618 794 733 794 l 361 794 l 361 207 l 433 207 l 433 477 l 565 477 l 733 207 l 819 207 l 642 477 m 433 534 l 433 743 l 602 743 q 703 726 659 745 q 749 640 747 707 q 729 575 749 597 q 677 543 709 551 q 611 536 647 536 q 543 534 575 534 l 433 534 z "},"Þ":{"ha":848,"x_min":109,"x_max":802,"o":"m 203 0 l 203 233 l 416 233 q 679 290 562 231 q 800 513 797 350 q 734 709 802 629 q 636 771 700 747 q 473 791 572 791 l 203 791 l 203 1000 l 109 1000 l 109 0 l 203 0 m 203 314 l 203 711 l 447 711 q 705 519 707 709 q 631 354 704 396 q 419 314 554 313 l 203 314 z "},"¦":{"ha":309,"x_min":113,"x_max":196,"o":"m 113 937 l 113 452 l 196 452 l 196 937 l 113 937 m 113 243 l 113 -243 l 196 -243 l 196 243 l 113 243 z "},"Ð":{"ha":1003,"x_min":14,"x_max":930,"o":"m 207 920 l 433 920 q 558 913 497 920 q 663 882 618 907 q 803 720 766 822 q 835 501 836 615 q 802 289 836 396 q 668 126 766 183 q 555 89 612 98 q 433 81 497 79 l 207 81 l 207 490 l 431 490 l 431 571 l 207 571 l 207 920 m 113 571 l 14 571 l 14 490 l 113 490 l 113 0 l 454 0 q 647 24 555 0 q 808 122 739 47 q 904 301 876 200 q 929 501 929 401 q 896 728 930 607 q 762 925 861 850 q 616 989 694 977 q 454 1000 538 1000 l 113 1000 l 113 571 z "},"½":{"ha":1158,"x_min":56,"x_max":1103,"o":"m 249 -20 l 865 979 l 794 979 l 178 -20 l 249 -20 m 220 439 l 278 439 l 278 1026 l 232 1026 q 174 933 218 954 q 56 911 129 912 l 56 875 l 220 875 l 220 439 m 761 395 q 799 500 760 457 q 900 543 838 542 q 1000 513 961 543 q 1040 422 1039 481 q 1013 342 1040 372 q 936 285 983 310 q 836 228 889 261 q 730 143 782 196 q 692 77 701 113 q 682 0 682 41 l 1097 0 l 1097 45 l 743 45 q 771 115 747 87 q 826 164 794 144 q 909 212 863 189 q 1002 261 957 235 q 1074 329 1046 290 q 1103 425 1101 368 q 1054 541 1103 496 q 907 587 1004 586 q 757 536 812 587 q 700 395 700 484 l 761 395 z "},"−":{"ha":917,"x_min":111,"x_max":806,"o":"m 111 306 l 806 306 l 806 389 l 111 389 l 111 306 z "},"ç":{"ha":772,"x_min":65,"x_max":705,"o":"m 694 493 q 396 739 650 741 q 151 625 235 736 q 65 358 65 514 q 135 106 65 207 q 353 -16 205 3 l 281 -114 l 301 -132 q 362 -121 332 -121 q 411 -134 391 -121 q 432 -175 431 -146 q 403 -224 431 -210 q 340 -240 374 -240 q 252 -220 294 -239 l 231 -261 q 357 -288 292 -286 q 475 -253 427 -288 q 510 -146 522 -220 q 477 -96 505 -118 q 403 -74 450 -74 q 353 -82 378 -74 l 403 -20 q 705 249 665 0 l 616 249 q 396 56 585 58 q 211 151 268 58 q 154 358 154 241 q 212 568 153 476 q 396 664 269 661 q 610 493 564 661 l 694 493 z "},"ð":{"ha":772,"x_min":53,"x_max":720,"o":"m 631 359 q 575 150 631 240 q 386 56 517 57 q 205 142 267 57 q 142 359 142 224 q 199 571 142 481 q 386 664 256 661 q 575 576 518 663 q 631 359 632 490 l 631 359 m 372 814 l 457 882 l 457 882 q 583 675 536 812 l 583 675 q 492 728 536 714 q 380 739 447 739 q 130 621 208 736 q 53 359 53 509 q 151 78 54 172 q 386 -20 244 -18 q 629 86 541 -18 q 720 359 718 186 q 511 925 715 734 l 593 991 l 542 1026 l 542 1026 l 465 964 l 465 964 q 355 1026 414 1003 l 298 981 q 410 920 362 953 l 319 847 l 372 814 l 372 814 z "},"±":{"ha":917,"x_min":111,"x_max":806,"o":"m 416 458 l 111 458 l 111 375 l 416 375 l 416 139 l 500 139 l 500 375 l 806 375 l 806 458 l 500 458 l 500 694 l 416 694 l 416 458 m 111 0 l 806 0 l 806 83 l 111 83 l 111 0 z "},"Ç":{"ha":1003,"x_min":65,"x_max":930,"o":"m 920 709 q 532 1026 855 1025 q 200 907 329 1027 q 66 500 68 785 q 160 143 65 290 q 461 -25 253 -4 l 396 -114 l 416 -132 q 477 -121 447 -121 q 526 -134 507 -121 q 547 -175 546 -146 q 518 -224 546 -210 q 456 -240 489 -240 q 367 -220 410 -239 l 346 -261 q 472 -288 407 -286 q 590 -253 542 -288 q 625 -146 637 -220 q 593 -96 621 -118 q 518 -74 565 -74 q 468 -82 493 -74 l 514 -25 q 803 85 705 -17 q 930 329 901 184 l 832 329 q 725 134 804 208 q 515 54 646 56 q 237 196 315 57 q 179 340 197 260 q 161 503 161 418 q 244 814 160 686 q 507 946 326 943 q 822 709 764 950 l 920 709 z "},"þ":{"ha":848,"x_min":110,"x_max":771,"o":"m 193 357 q 257 576 193 490 q 436 664 318 663 q 612 591 545 664 q 682 382 679 518 q 628 153 689 243 q 436 56 565 57 q 258 146 322 57 q 193 357 193 233 l 193 357 m 193 115 l 193 115 q 304 17 235 50 q 450 -20 374 -20 q 693 97 614 -17 q 771 361 771 207 q 697 631 771 525 q 446 739 619 737 q 306 703 375 739 q 196 593 236 665 l 193 593 l 193 1000 l 110 1000 l 110 -283 l 193 -283 l 193 115 z "},"©":{"ha":1111,"x_min":29,"x_max":1082,"o":"m 557 -26 q 929 129 782 -24 q 1082 501 1079 277 q 929 873 1079 724 q 557 1026 782 1023 q 184 873 332 1023 q 29 501 32 724 q 184 129 32 277 q 557 -26 332 -24 l 557 -26 m 557 43 q 239 176 361 45 q 113 501 114 304 q 239 825 114 697 q 557 957 361 954 q 875 825 753 954 q 998 501 997 697 q 875 176 997 304 q 557 43 753 45 l 557 43 m 749 406 q 692 301 739 340 q 581 262 644 262 q 425 339 477 264 q 370 507 370 410 q 422 676 370 607 q 578 746 473 745 q 689 709 642 746 q 749 608 736 672 l 823 608 q 742 755 808 705 q 576 807 673 807 q 367 722 441 806 q 289 505 289 639 q 370 290 289 374 q 581 201 448 203 q 745 257 675 201 q 823 406 812 311 l 749 406 z "},"¬":{"ha":917,"x_min":111,"x_max":806,"o":"m 717 155 l 806 155 l 806 525 l 111 525 l 111 441 l 717 441 l 717 155 z "},"²":{"ha":463,"x_min":21,"x_max":441,"o":"m 100 833 q 138 939 98 896 q 239 982 176 981 q 339 951 300 982 q 379 861 378 920 q 351 781 379 811 q 275 724 322 749 q 175 667 228 700 q 69 582 121 635 q 31 515 40 551 q 21 439 21 481 l 436 439 l 436 484 l 82 484 q 110 554 86 526 q 165 603 134 583 q 249 651 201 628 q 340 700 296 673 q 412 768 385 729 q 441 864 440 807 q 393 979 441 935 q 245 1026 343 1025 q 96 975 151 1026 q 39 833 39 922 l 100 833 z "},"³":{"ha":463,"x_min":16,"x_max":448,"o":"m 184 722 q 329 703 271 729 q 389 604 385 676 q 347 514 391 551 q 232 472 302 473 q 118 509 161 472 q 74 608 74 542 l 16 608 q 79 468 25 509 q 241 428 132 427 q 395 482 342 432 q 447 606 447 532 q 427 689 448 648 q 335 750 403 730 q 425 882 425 789 q 372 991 424 954 q 243 1026 321 1026 q 168 1019 204 1026 q 98 987 130 1013 q 37 855 36 933 l 94 855 q 134 947 94 912 q 232 982 171 982 q 328 958 289 982 q 367 878 366 932 q 317 789 366 812 q 184 765 268 764 l 184 722 z "},"™":{"ha":1305,"x_min":40,"x_max":1193,"o":"m 1193 1000 l 1060 1000 l 896 568 l 893 568 l 726 1000 l 593 1000 l 593 415 l 665 415 l 665 939 l 668 939 l 869 415 l 917 415 l 1118 939 l 1121 939 l 1121 415 l 1193 415 l 1193 1000 m 485 1000 l 40 1000 l 40 945 l 227 945 l 227 415 l 298 415 l 298 945 l 485 945 l 485 1000 z "},"°":{"ha":555,"x_min":69,"x_max":486,"o":"m 486 771 q 425 918 485 860 q 278 979 367 978 q 130 918 191 978 q 69 771 72 860 q 132 625 71 684 q 278 562 191 564 q 425 625 367 564 q 486 771 485 684 l 486 771 m 431 771 q 386 664 429 707 q 278 618 343 619 q 171 664 214 619 q 125 771 126 707 q 170 879 126 836 q 277 924 212 922 q 386 879 343 922 q 431 771 429 836 l 431 771 z "},"µ":{"ha":772,"x_min":100,"x_max":671,"o":"m 587 328 q 530 134 587 207 q 368 56 473 57 q 183 248 180 57 l 183 720 l 100 720 l 100 -283 l 183 -283 l 183 25 l 183 25 q 254 -5 211 8 q 355 -20 297 -18 q 440 -5 403 -18 q 503 22 476 5 q 551 62 530 41 q 587 100 572 82 l 587 100 l 587 0 l 671 0 l 671 720 l 587 720 l 587 328 z "},"ÿ":{"ha":694,"x_min":25,"x_max":669,"o":"m 94 -273 q 174 -283 129 -282 q 307 -203 258 -282 q 401 9 354 -126 l 669 720 l 579 720 l 349 101 l 349 101 l 118 720 l 25 720 l 304 -5 q 283 -61 294 -29 q 258 -127 273 -96 q 222 -180 244 -159 q 164 -204 200 -203 q 94 -196 127 -203 l 94 -273 m 205 811 l 296 811 l 296 953 l 205 953 l 205 811 m 426 811 l 517 811 l 517 953 l 426 953 l 426 811 z "},"ý":{"ha":694,"x_min":25,"x_max":669,"o":"m 94 -273 q 174 -283 129 -282 q 307 -203 258 -282 q 401 9 354 -126 l 669 720 l 579 720 l 349 101 l 349 101 l 118 720 l 25 720 l 304 -5 q 283 -61 294 -29 q 258 -127 273 -96 q 222 -180 244 -159 q 164 -204 200 -203 q 94 -196 127 -203 l 94 -273 m 347 797 l 536 990 l 430 990 l 275 797 l 347 797 z "},"ù":{"ha":772,"x_min":98,"x_max":671,"o":"m 587 328 q 530 134 587 207 q 368 56 473 57 q 183 248 180 57 l 183 720 l 100 720 l 100 245 q 157 58 98 132 q 355 -20 214 -18 q 440 -5 403 -18 q 503 22 476 5 q 551 62 530 41 q 587 100 572 82 l 587 100 l 587 0 l 671 0 l 671 720 l 587 720 l 587 328 m 412 797 l 482 797 l 328 990 l 220 990 l 412 797 z "},"ü":{"ha":772,"x_min":98,"x_max":671,"o":"m 587 328 q 530 134 587 207 q 368 56 473 57 q 183 248 180 57 l 183 720 l 100 720 l 100 245 q 157 58 98 132 q 355 -20 214 -18 q 440 -5 403 -18 q 503 22 476 5 q 551 62 530 41 q 587 100 572 82 l 587 100 l 587 0 l 671 0 l 671 720 l 587 720 l 587 328 m 242 811 l 332 811 l 332 953 l 242 953 l 242 811 m 463 811 l 553 811 l 553 953 l 463 953 l 463 811 z "},"û":{"ha":772,"x_min":98,"x_max":671,"o":"m 587 328 q 530 134 587 207 q 368 56 473 57 q 183 248 180 57 l 183 720 l 100 720 l 100 245 q 157 58 98 132 q 355 -20 214 -18 q 440 -5 403 -18 q 503 22 476 5 q 551 62 530 41 q 587 100 572 82 l 587 100 l 587 0 l 671 0 l 671 720 l 587 720 l 587 328 m 394 939 l 394 939 l 508 797 l 598 797 l 441 990 l 349 990 l 190 797 l 280 797 l 394 939 z "},"ú":{"ha":772,"x_min":98,"x_max":671,"o":"m 587 328 q 530 134 587 207 q 368 56 473 57 q 183 248 180 57 l 183 720 l 100 720 l 100 245 q 157 58 98 132 q 355 -20 214 -18 q 440 -5 403 -18 q 503 22 476 5 q 551 62 530 41 q 587 100 572 82 l 587 100 l 587 0 l 671 0 l 671 720 l 587 720 l 587 328 m 382 797 l 572 990 l 466 990 l 311 797 l 382 797 z "},"š":{"ha":694,"x_min":64,"x_max":631,"o":"m 64 225 q 140 53 71 121 q 338 -20 210 -18 q 549 35 467 -20 q 631 191 629 87 q 612 278 631 243 q 559 336 593 314 q 486 374 528 359 q 400 397 444 387 q 243 444 311 415 q 191 482 210 460 q 170 541 170 505 q 332 664 171 660 q 464 631 411 664 q 526 513 515 596 l 611 513 q 333 739 574 743 q 149 682 214 737 q 81 533 81 625 q 101 447 81 482 q 154 390 121 412 q 229 357 187 370 q 271 346 250 350 q 311 333 290 340 q 397 317 355 325 q 437 306 418 313 q 471 292 457 300 q 524 253 504 278 q 542 189 542 228 q 498 97 542 135 q 364 56 456 57 q 149 225 182 52 l 64 225 m 357 848 l 357 848 l 243 990 l 153 990 l 311 797 l 404 797 l 561 990 l 471 990 l 357 848 z "},"õ":{"ha":772,"x_min":53,"x_max":720,"o":"m 386 -20 q 629 86 541 -18 q 720 359 718 186 q 637 629 720 522 q 386 739 554 736 q 136 629 220 736 q 53 359 53 522 q 151 78 54 172 q 386 -20 244 -18 l 386 -20 m 631 359 q 575 150 631 240 q 386 56 517 57 q 205 142 267 57 q 142 359 142 224 q 199 571 142 481 q 386 664 256 661 q 575 576 518 663 q 631 359 632 490 l 631 359 m 231 814 q 254 861 239 842 q 299 882 269 880 q 396 851 346 879 q 449 831 421 840 q 502 819 474 819 q 566 844 541 819 q 604 903 591 868 q 616 956 613 928 l 563 956 q 546 909 559 929 q 502 886 532 886 q 418 912 466 888 q 374 935 395 924 q 331 946 352 943 q 263 940 295 954 q 209 896 231 925 q 181 814 186 864 l 231 814 z "},"ò":{"ha":772,"x_min":53,"x_max":720,"o":"m 386 -20 q 629 86 541 -18 q 720 359 718 186 q 637 629 720 522 q 386 739 554 736 q 136 629 220 736 q 53 359 53 522 q 151 78 54 172 q 386 -20 244 -18 l 386 -20 m 631 359 q 575 150 631 240 q 386 56 517 57 q 205 142 267 57 q 142 359 142 224 q 199 571 142 481 q 386 664 256 661 q 575 576 518 663 q 631 359 632 490 l 631 359 m 416 797 l 486 797 l 332 990 l 224 990 l 416 797 z "},"ö":{"ha":772,"x_min":53,"x_max":720,"o":"m 386 -20 q 629 86 541 -18 q 720 359 718 186 q 637 629 720 522 q 386 739 554 736 q 136 629 220 736 q 53 359 53 522 q 151 78 54 172 q 386 -20 244 -18 l 386 -20 m 631 359 q 575 150 631 240 q 386 56 517 57 q 205 142 267 57 q 142 359 142 224 q 199 571 142 481 q 386 664 256 661 q 575 576 518 663 q 631 359 632 490 l 631 359 m 244 811 l 334 811 l 334 953 l 244 953 l 244 811 m 465 811 l 555 811 l 555 953 l 465 953 l 465 811 z "},"ô":{"ha":772,"x_min":53,"x_max":720,"o":"m 386 -20 q 629 86 541 -18 q 720 359 718 186 q 637 629 720 522 q 386 739 554 736 q 136 629 220 736 q 53 359 53 522 q 151 78 54 172 q 386 -20 244 -18 l 386 -20 m 631 359 q 575 150 631 240 q 386 56 517 57 q 205 142 267 57 q 142 359 142 224 q 199 571 142 481 q 386 664 256 661 q 575 576 518 663 q 631 359 632 490 l 631 359 m 398 939 l 398 939 l 512 797 l 602 797 l 446 990 l 353 990 l 194 797 l 284 797 l 398 939 z "},"ó":{"ha":772,"x_min":53,"x_max":720,"o":"m 386 -20 q 629 86 541 -18 q 720 359 718 186 q 637 629 720 522 q 386 739 554 736 q 136 629 220 736 q 53 359 53 522 q 151 78 54 172 q 386 -20 244 -18 l 386 -20 m 631 359 q 575 150 631 240 q 386 56 517 57 q 205 142 267 57 q 142 359 142 224 q 199 571 142 481 q 386 664 256 661 q 575 576 518 663 q 631 359 632 490 l 631 359 m 387 797 l 576 990 l 470 990 l 315 797 l 387 797 z "},"ñ":{"ha":772,"x_min":100,"x_max":671,"o":"m 183 387 q 201 524 182 458 q 273 622 224 582 q 401 664 323 663 q 587 469 590 664 l 587 0 l 671 0 l 671 471 q 667 558 671 517 q 635 636 661 599 q 415 739 553 742 q 288 707 342 739 q 183 619 232 675 l 183 619 l 183 720 l 100 720 l 100 0 l 183 0 l 183 387 m 230 814 q 254 861 239 842 q 298 882 268 880 q 395 851 345 879 q 448 831 420 840 q 501 819 473 819 q 565 844 540 819 q 604 903 590 868 q 615 956 612 928 l 562 956 q 545 909 558 929 q 501 886 532 886 q 418 912 465 888 q 373 935 394 924 q 330 946 351 943 q 262 940 294 954 q 208 896 230 925 q 180 814 186 864 l 230 814 z "},"ì":{"ha":309,"x_min":109,"x_max":192,"o":"m 192 0 l 192 720 l 109 720 l 109 0 l 192 0 m 175 797 l 245 797 l 92 990 l -17 990 l 175 797 z "},"ï":{"ha":309,"x_min":109,"x_max":192,"o":"m 192 0 l 192 720 l 109 720 l 109 0 l 192 0 m -24 811 l 66 811 l 66 953 l -24 953 l -24 811 m 197 811 l 288 811 l 288 953 l 197 953 l 197 811 z "},"î":{"ha":309,"x_min":109,"x_max":192,"o":"m 192 0 l 192 720 l 109 720 l 109 0 l 192 0 m 128 939 l 128 939 l 242 797 l 332 797 l 176 990 l 83 990 l -76 797 l 14 797 l 128 939 z "},"í":{"ha":309,"x_min":109,"x_max":192,"o":"m 192 0 l 192 720 l 109 720 l 109 0 l 192 0 m 117 797 l 307 990 l 200 990 l 45 797 l 117 797 z "},"è":{"ha":772,"x_min":61,"x_max":709,"o":"m 151 410 q 224 589 164 515 q 393 664 283 663 q 564 590 505 663 q 621 410 621 519 l 151 410 m 709 340 q 393 739 700 736 q 151 628 237 736 q 62 357 62 519 q 142 90 61 195 q 393 -20 222 -17 q 603 50 529 -18 q 704 221 675 117 l 611 221 q 393 56 565 57 q 212 140 273 57 q 151 340 151 221 l 709 340 m 413 797 l 484 797 l 330 990 l 221 990 l 413 797 z "},"ë":{"ha":772,"x_min":61,"x_max":709,"o":"m 151 410 q 224 589 164 515 q 393 664 283 663 q 564 590 505 663 q 621 410 621 519 l 151 410 m 709 340 q 393 739 700 736 q 151 628 237 736 q 62 357 62 519 q 142 90 61 195 q 393 -20 222 -17 q 603 50 529 -18 q 704 221 675 117 l 611 221 q 393 56 565 57 q 212 140 273 57 q 151 340 151 221 l 709 340 m 243 811 l 333 811 l 333 953 l 243 953 l 243 811 m 463 811 l 554 811 l 554 953 l 463 953 l 463 811 z "},"ê":{"ha":772,"x_min":61,"x_max":709,"o":"m 151 410 q 224 589 164 515 q 393 664 283 663 q 564 590 505 663 q 621 410 621 519 l 151 410 m 709 340 q 393 739 700 736 q 151 628 237 736 q 62 357 62 519 q 142 90 61 195 q 393 -20 222 -17 q 603 50 529 -18 q 704 221 675 117 l 611 221 q 393 56 565 57 q 212 140 273 57 q 151 340 151 221 l 709 340 m 395 939 l 395 939 l 509 797 l 599 797 l 442 990 l 349 990 l 191 797 l 281 797 l 395 939 z "},"é":{"ha":772,"x_min":61,"x_max":709,"o":"m 151 410 q 224 589 164 515 q 393 664 283 663 q 564 590 505 663 q 621 410 621 519 l 151 410 m 709 340 q 393 739 700 736 q 151 628 237 736 q 62 357 62 519 q 142 90 61 195 q 393 -20 222 -17 q 603 50 529 -18 q 704 221 675 117 l 611 221 q 393 56 565 57 q 212 140 273 57 q 151 340 151 221 l 709 340 m 384 797 l 574 990 l 467 990 l 313 797 l 384 797 z "},"ã":{"ha":772,"x_min":64,"x_max":742,"o":"m 571 378 l 571 265 q 490 107 568 157 q 309 56 412 56 q 201 89 248 56 q 153 184 154 121 q 355 338 155 326 q 464 350 410 340 q 571 378 518 358 l 571 378 m 315 404 q 64 187 64 370 q 138 33 65 83 q 304 -20 207 -20 q 572 100 464 -18 l 572 100 q 586 32 574 62 q 639 -7 599 1 q 676 -11 657 -11 q 715 -4 696 -11 q 742 3 733 0 l 742 68 l 742 68 q 672 64 690 50 q 654 123 652 77 l 654 515 q 579 690 652 639 q 393 739 505 739 q 192 685 273 739 q 97 501 110 628 l 182 501 q 250 631 196 594 q 391 664 306 665 q 530 623 489 663 q 571 518 571 583 q 567 476 571 498 q 541 443 561 454 q 488 428 518 435 q 431 419 456 422 l 315 404 m 231 814 q 254 861 239 842 q 299 882 269 880 q 396 851 346 879 q 449 831 421 840 q 502 819 474 819 q 566 844 541 819 q 604 903 591 868 q 616 956 613 928 l 563 956 q 546 909 559 929 q 502 886 532 886 q 418 912 466 888 q 374 935 395 924 q 331 946 352 943 q 263 940 295 954 q 209 896 231 925 q 181 814 186 864 l 231 814 z "},"å":{"ha":772,"x_min":64,"x_max":742,"o":"m 571 378 l 571 265 q 490 107 568 157 q 309 56 412 56 q 201 89 248 56 q 153 184 154 121 q 355 338 155 326 q 464 350 410 340 q 571 378 518 358 l 571 378 m 315 404 q 64 187 64 370 q 138 33 65 83 q 304 -20 207 -20 q 572 100 464 -18 l 572 100 q 586 32 574 62 q 639 -7 599 1 q 676 -11 657 -11 q 715 -4 696 -11 q 742 3 733 0 l 742 68 l 742 68 q 672 64 690 50 q 654 123 652 77 l 654 515 q 579 690 652 639 q 393 739 505 739 q 192 685 273 739 q 97 501 110 628 l 182 501 q 250 631 196 594 q 391 664 306 665 q 530 623 489 663 q 571 518 571 583 q 567 476 571 498 q 541 443 561 454 q 488 428 518 435 q 431 419 456 422 l 315 404 m 393 803 q 490 844 451 804 q 530 940 529 883 q 490 1039 529 998 q 393 1079 451 1078 q 297 1039 337 1078 q 254 940 254 998 q 296 844 255 883 q 393 803 334 804 l 393 803 m 393 848 q 329 876 355 848 q 300 940 300 903 q 329 1007 300 979 q 393 1034 355 1034 q 458 1006 431 1032 q 484 940 484 979 q 458 878 484 904 q 393 848 431 848 l 393 848 z "},"à":{"ha":772,"x_min":64,"x_max":742,"o":"m 571 378 l 571 265 q 490 107 568 157 q 309 56 412 56 q 201 89 248 56 q 153 184 154 121 q 355 338 155 326 q 464 350 410 340 q 571 378 518 358 l 571 378 m 315 404 q 64 187 64 370 q 138 33 65 83 q 304 -20 207 -20 q 572 100 464 -18 l 572 100 q 586 32 574 62 q 639 -7 599 1 q 676 -11 657 -11 q 715 -4 696 -11 q 742 3 733 0 l 742 68 l 742 68 q 672 64 690 50 q 654 123 652 77 l 654 515 q 579 690 652 639 q 393 739 505 739 q 192 685 273 739 q 97 501 110 628 l 182 501 q 250 631 196 594 q 391 664 306 665 q 530 623 489 663 q 571 518 571 583 q 567 476 571 498 q 541 443 561 454 q 488 428 518 435 q 431 419 456 422 l 315 404 m 414 797 l 485 797 l 331 990 l 222 990 l 414 797 z "},"ä":{"ha":772,"x_min":64,"x_max":742,"o":"m 571 378 l 571 265 q 490 107 568 157 q 309 56 412 56 q 201 89 248 56 q 153 184 154 121 q 355 338 155 326 q 464 350 410 340 q 571 378 518 358 l 571 378 m 315 404 q 64 187 64 370 q 138 33 65 83 q 304 -20 207 -20 q 572 100 464 -18 l 572 100 q 586 32 574 62 q 639 -7 599 1 q 676 -11 657 -11 q 715 -4 696 -11 q 742 3 733 0 l 742 68 l 742 68 q 672 64 690 50 q 654 123 652 77 l 654 515 q 579 690 652 639 q 393 739 505 739 q 192 685 273 739 q 97 501 110 628 l 182 501 q 250 631 196 594 q 391 664 306 665 q 530 623 489 663 q 571 518 571 583 q 567 476 571 498 q 541 443 561 454 q 488 428 518 435 q 431 419 456 422 l 315 404 m 244 811 l 334 811 l 334 953 l 244 953 l 244 811 m 465 811 l 555 811 l 555 953 l 465 953 l 465 811 z "},"â":{"ha":772,"x_min":64,"x_max":742,"o":"m 571 378 l 571 265 q 490 107 568 157 q 309 56 412 56 q 201 89 248 56 q 153 184 154 121 q 355 338 155 326 q 464 350 410 340 q 571 378 518 358 l 571 378 m 315 404 q 64 187 64 370 q 138 33 65 83 q 304 -20 207 -20 q 572 100 464 -18 l 572 100 q 586 32 574 62 q 639 -7 599 1 q 676 -11 657 -11 q 715 -4 696 -11 q 742 3 733 0 l 742 68 l 742 68 q 672 64 690 50 q 654 123 652 77 l 654 515 q 579 690 652 639 q 393 739 505 739 q 192 685 273 739 q 97 501 110 628 l 182 501 q 250 631 196 594 q 391 664 306 665 q 530 623 489 663 q 571 518 571 583 q 567 476 571 498 q 541 443 561 454 q 488 428 518 435 q 431 419 456 422 l 315 404 m 396 939 l 396 939 l 510 797 l 600 797 l 444 990 l 351 990 l 192 797 l 282 797 l 396 939 z "},"á":{"ha":772,"x_min":64,"x_max":742,"o":"m 571 378 l 571 265 q 490 107 568 157 q 309 56 412 56 q 201 89 248 56 q 153 184 154 121 q 355 338 155 326 q 464 350 410 340 q 571 378 518 358 l 571 378 m 315 404 q 64 187 64 370 q 138 33 65 83 q 304 -20 207 -20 q 572 100 464 -18 l 572 100 q 586 32 574 62 q 639 -7 599 1 q 676 -11 657 -11 q 715 -4 696 -11 q 742 3 733 0 l 742 68 l 742 68 q 672 64 690 50 q 654 123 652 77 l 654 515 q 579 690 652 639 q 393 739 505 739 q 192 685 273 739 q 97 501 110 628 l 182 501 q 250 631 196 594 q 391 664 306 665 q 530 623 489 663 q 571 518 571 583 q 567 476 571 498 q 541 443 561 454 q 488 428 518 435 q 431 419 456 422 l 315 404 m 385 797 l 575 990 l 469 990 l 314 797 l 385 797 z "},"Ÿ":{"ha":848,"x_min":17,"x_max":831,"o":"m 419 518 l 125 1000 l 17 1000 l 374 429 l 374 0 l 468 0 l 468 436 l 831 1000 l 721 1000 l 419 518 l 419 518 m 285 1092 l 375 1092 l 375 1234 l 285 1234 l 285 1092 m 505 1092 l 596 1092 l 596 1234 l 505 1234 l 505 1092 z "},"Ý":{"ha":848,"x_min":17,"x_max":831,"o":"m 419 518 l 125 1000 l 17 1000 l 374 429 l 374 0 l 468 0 l 468 436 l 831 1000 l 721 1000 l 419 518 l 419 518 m 426 1078 l 616 1271 l 509 1271 l 355 1078 l 426 1078 z "},"Ù":{"ha":1003,"x_min":113,"x_max":889,"o":"m 114 376 q 501 -26 113 -21 q 889 376 889 -22 l 889 1000 l 794 1000 l 794 404 q 501 54 802 53 q 208 404 204 49 l 208 1000 l 114 1000 l 114 376 m 532 1078 l 602 1078 l 448 1271 l 340 1271 l 532 1078 z "},"Ü":{"ha":1003,"x_min":113,"x_max":889,"o":"m 114 376 q 501 -26 113 -21 q 889 376 889 -22 l 889 1000 l 794 1000 l 794 404 q 501 54 802 53 q 208 404 204 49 l 208 1000 l 114 1000 l 114 376 m 360 1092 l 450 1092 l 450 1234 l 360 1234 l 360 1092 m 581 1092 l 671 1092 l 671 1234 l 581 1234 l 581 1092 z "},"Û":{"ha":1003,"x_min":113,"x_max":889,"o":"m 114 376 q 501 -26 113 -21 q 889 376 889 -22 l 889 1000 l 794 1000 l 794 404 q 501 54 802 53 q 208 404 204 49 l 208 1000 l 114 1000 l 114 376 m 513 1219 l 513 1219 l 627 1078 l 718 1078 l 561 1271 l 468 1271 l 309 1078 l 399 1078 l 513 1219 z "},"Ú":{"ha":1003,"x_min":113,"x_max":889,"o":"m 114 376 q 501 -26 113 -21 q 889 376 889 -22 l 889 1000 l 794 1000 l 794 404 q 501 54 802 53 q 208 404 204 49 l 208 1000 l 114 1000 l 114 376 m 503 1078 l 692 1271 l 586 1271 l 431 1078 l 503 1078 z "},"Š":{"ha":848,"x_min":60,"x_max":787,"o":"m 60 298 q 164 56 61 136 q 422 -26 262 -26 q 787 265 782 -22 q 764 387 787 338 q 700 465 741 435 q 608 515 660 497 q 500 545 557 533 q 391 570 444 557 q 293 600 338 582 q 218 648 249 618 q 178 725 186 677 q 222 875 165 807 q 422 946 279 943 q 594 896 522 946 q 668 728 667 842 l 758 728 q 676 939 760 854 q 422 1026 591 1025 q 170 946 256 1023 q 83 758 83 867 q 111 639 83 686 q 179 559 138 590 q 278 511 224 529 q 389 479 332 493 q 503 453 448 467 q 599 415 555 439 q 668 357 643 393 q 693 261 693 319 q 635 118 693 178 q 439 54 574 56 q 244 110 322 53 q 151 298 165 167 l 60 298 m 436 1129 l 436 1129 l 322 1271 l 232 1271 l 391 1078 l 484 1078 l 640 1271 l 550 1271 l 436 1129 z "},"Õ":{"ha":1080,"x_min":74,"x_max":1006,"o":"m 74 498 q 192 129 74 279 q 539 -26 309 -24 q 889 129 771 -24 q 1006 498 1006 279 q 889 873 1006 725 q 534 1026 771 1023 q 193 872 311 1023 q 74 498 74 724 l 74 498 m 541 54 q 257 189 346 57 q 191 330 211 250 q 168 498 168 411 q 258 811 168 680 q 538 946 347 943 q 911 498 904 937 q 823 189 911 318 q 541 54 734 57 l 541 54 m 390 1095 q 414 1142 399 1122 q 458 1162 428 1161 q 555 1132 505 1160 q 608 1112 581 1121 q 661 1100 633 1100 q 725 1125 700 1100 q 764 1183 750 1149 q 775 1236 772 1208 l 722 1236 q 705 1190 718 1210 q 661 1167 692 1167 q 578 1193 625 1168 q 533 1215 554 1204 q 490 1227 511 1223 q 422 1221 454 1235 q 368 1177 390 1206 q 340 1095 346 1145 l 390 1095 z "},"Ò":{"ha":1080,"x_min":74,"x_max":1006,"o":"m 74 498 q 192 129 74 279 q 539 -26 309 -24 q 889 129 771 -24 q 1006 498 1006 279 q 889 873 1006 725 q 534 1026 771 1023 q 193 872 311 1023 q 74 498 74 724 l 74 498 m 541 54 q 257 189 346 57 q 191 330 211 250 q 168 498 168 411 q 258 811 168 680 q 538 946 347 943 q 911 498 904 937 q 823 189 911 318 q 541 54 734 57 l 541 54 m 573 1078 l 644 1078 l 490 1271 l 381 1271 l 573 1078 z "},"Ö":{"ha":1080,"x_min":74,"x_max":1006,"o":"m 74 498 q 192 129 74 279 q 539 -26 309 -24 q 889 129 771 -24 q 1006 498 1006 279 q 889 873 1006 725 q 534 1026 771 1023 q 193 872 311 1023 q 74 498 74 724 l 74 498 m 541 54 q 257 189 346 57 q 191 330 211 250 q 168 498 168 411 q 258 811 168 680 q 538 946 347 943 q 911 498 904 937 q 823 189 911 318 q 541 54 734 57 l 541 54 m 404 1092 l 494 1092 l 494 1234 l 404 1234 l 404 1092 m 624 1092 l 715 1092 l 715 1234 l 624 1234 l 624 1092 z "},"Ô":{"ha":1080,"x_min":74,"x_max":1006,"o":"m 74 498 q 192 129 74 279 q 539 -26 309 -24 q 889 129 771 -24 q 1006 498 1006 279 q 889 873 1006 725 q 534 1026 771 1023 q 193 872 311 1023 q 74 498 74 724 l 74 498 m 541 54 q 257 189 346 57 q 191 330 211 250 q 168 498 168 411 q 258 811 168 680 q 538 946 347 943 q 911 498 904 937 q 823 189 911 318 q 541 54 734 57 l 541 54 m 555 1219 l 555 1219 l 669 1078 l 760 1078 l 603 1271 l 510 1271 l 351 1078 l 441 1078 l 555 1219 z "},"Ó":{"ha":1080,"x_min":74,"x_max":1006,"o":"m 74 498 q 192 129 74 279 q 539 -26 309 -24 q 889 129 771 -24 q 1006 498 1006 279 q 889 873 1006 725 q 534 1026 771 1023 q 193 872 311 1023 q 74 498 74 724 l 74 498 m 541 54 q 257 189 346 57 q 191 330 211 250 q 168 498 168 411 q 258 811 168 680 q 538 946 347 943 q 911 498 904 937 q 823 189 911 318 q 541 54 734 57 l 541 54 m 544 1078 l 734 1271 l 627 1271 l 473 1078 l 544 1078 z "},"Ñ":{"ha":1003,"x_min":110,"x_max":892,"o":"m 782 0 l 892 0 l 892 1000 l 797 1000 l 797 126 l 794 126 l 216 1000 l 110 1000 l 110 0 l 204 0 l 204 872 l 207 872 l 782 0 m 348 1095 q 372 1142 357 1122 q 416 1162 386 1161 q 513 1132 463 1160 q 566 1112 538 1121 q 619 1100 591 1100 q 683 1125 658 1100 q 722 1183 708 1149 q 733 1236 730 1208 l 680 1236 q 663 1190 676 1210 q 619 1167 650 1167 q 536 1193 583 1168 q 491 1215 512 1204 q 448 1227 469 1223 q 380 1221 412 1235 q 326 1177 348 1206 q 298 1095 304 1145 l 348 1095 z "},"Ì":{"ha":386,"x_min":146,"x_max":240,"o":"m 240 0 l 240 1000 l 146 1000 l 146 0 l 240 0 m 214 1078 l 284 1078 l 130 1271 l 22 1271 l 214 1078 z "},"Ï":{"ha":386,"x_min":146,"x_max":240,"o":"m 240 0 l 240 1000 l 146 1000 l 146 0 l 240 0 m 15 1092 l 105 1092 l 105 1234 l 15 1234 l 15 1092 m 235 1092 l 326 1092 l 326 1234 l 235 1234 l 235 1092 z "},"Î":{"ha":386,"x_min":146,"x_max":240,"o":"m 240 0 l 240 1000 l 146 1000 l 146 0 l 240 0 m 167 1219 l 167 1219 l 281 1078 l 371 1078 l 214 1271 l 121 1271 l -37 1078 l 53 1078 l 167 1219 z "},"Í":{"ha":386,"x_min":146,"x_max":240,"o":"m 240 0 l 240 1000 l 146 1000 l 146 0 l 240 0 m 155 1078 l 345 1271 l 239 1271 l 84 1078 l 155 1078 z "},"È":{"ha":848,"x_min":113,"x_max":791,"o":"m 791 0 l 791 81 l 207 81 l 207 477 l 722 477 l 722 558 l 207 558 l 207 920 l 778 920 l 778 1000 l 113 1000 l 113 0 l 791 0 m 452 1078 l 523 1078 l 369 1271 l 260 1271 l 452 1078 z "},"Ë":{"ha":848,"x_min":113,"x_max":791,"o":"m 791 0 l 791 81 l 207 81 l 207 477 l 722 477 l 722 558 l 207 558 l 207 920 l 778 920 l 778 1000 l 113 1000 l 113 0 l 791 0 m 282 1092 l 372 1092 l 372 1234 l 282 1234 l 282 1092 m 503 1092 l 593 1092 l 593 1234 l 503 1234 l 503 1092 z "},"Ê":{"ha":848,"x_min":113,"x_max":791,"o":"m 791 0 l 791 81 l 207 81 l 207 477 l 722 477 l 722 558 l 207 558 l 207 920 l 778 920 l 778 1000 l 113 1000 l 113 0 l 791 0 m 434 1219 l 434 1219 l 548 1078 l 638 1078 l 481 1271 l 389 1271 l 230 1078 l 320 1078 l 434 1219 z "},"É":{"ha":848,"x_min":113,"x_max":791,"o":"m 791 0 l 791 81 l 207 81 l 207 477 l 722 477 l 722 558 l 207 558 l 207 920 l 778 920 l 778 1000 l 113 1000 l 113 0 l 791 0 m 423 1078 l 613 1271 l 507 1271 l 352 1078 l 423 1078 z "},"Ã":{"ha":926,"x_min":21,"x_max":904,"o":"m 118 0 l 236 314 l 692 314 l 807 0 l 904 0 l 521 1000 l 414 1000 l 21 0 l 118 0 m 464 920 l 464 920 l 660 395 l 268 395 l 464 920 m 311 1095 q 335 1142 320 1122 q 380 1162 349 1161 q 477 1132 427 1160 q 530 1112 502 1121 q 583 1100 555 1100 q 646 1125 621 1100 q 685 1183 671 1149 q 696 1236 694 1208 l 644 1236 q 627 1190 640 1210 q 583 1167 613 1167 q 499 1193 547 1168 q 454 1215 475 1204 q 412 1227 433 1223 q 344 1221 376 1235 q 290 1177 311 1206 q 262 1095 267 1145 l 311 1095 z "},"Å":{"ha":926,"x_min":21,"x_max":904,"o":"m 118 0 l 236 314 l 692 314 l 807 0 l 904 0 l 521 1000 l 414 1000 l 21 0 l 118 0 m 464 920 l 464 920 l 660 395 l 268 395 l 464 920 m 502 1084 q 599 1125 560 1085 q 640 1221 638 1164 q 599 1320 638 1279 q 502 1360 560 1358 q 406 1320 446 1358 q 363 1221 363 1279 q 405 1125 364 1164 q 502 1084 444 1085 l 502 1084 m 502 1129 q 438 1157 465 1129 q 409 1221 409 1183 q 438 1288 409 1260 q 502 1314 465 1314 q 567 1286 541 1313 q 593 1221 593 1260 q 567 1158 593 1185 q 502 1129 541 1129 l 502 1129 z "},"À":{"ha":926,"x_min":21,"x_max":904,"o":"m 118 0 l 236 314 l 692 314 l 807 0 l 904 0 l 521 1000 l 414 1000 l 21 0 l 118 0 m 464 920 l 464 920 l 660 395 l 268 395 l 464 920 m 494 1078 l 565 1078 l 411 1271 l 302 1271 l 494 1078 z "},"Ä":{"ha":926,"x_min":21,"x_max":904,"o":"m 118 0 l 236 314 l 692 314 l 807 0 l 904 0 l 521 1000 l 414 1000 l 21 0 l 118 0 m 464 920 l 464 920 l 660 395 l 268 395 l 464 920 m 324 1092 l 414 1092 l 414 1234 l 324 1234 l 324 1092 m 545 1092 l 635 1092 l 635 1234 l 545 1234 l 545 1092 z "},"Â":{"ha":926,"x_min":21,"x_max":904,"o":"m 118 0 l 236 314 l 692 314 l 807 0 l 904 0 l 521 1000 l 414 1000 l 21 0 l 118 0 m 464 920 l 464 920 l 660 395 l 268 395 l 464 920 m 477 1219 l 477 1219 l 591 1078 l 681 1078 l 524 1271 l 431 1271 l 273 1078 l 363 1078 l 477 1219 z "},"Á":{"ha":926,"x_min":21,"x_max":904,"o":"m 118 0 l 236 314 l 692 314 l 807 0 l 904 0 l 521 1000 l 414 1000 l 21 0 l 118 0 m 464 920 l 464 920 l 660 395 l 268 395 l 464 920 m 465 1078 l 655 1271 l 549 1271 l 394 1078 l 465 1078 z "}}}
